<?xml version="1.0" encoding="UTF-8" standalone="no"?>
<svg
   xmlns:dc="http://purl.org/dc/elements/1.1/"
   xmlns:cc="http://creativecommons.org/ns#"
   xmlns:rdf="http://www.w3.org/1999/02/22-rdf-syntax-ns#"
   xmlns:svg="http://www.w3.org/2000/svg"
   xmlns="http://www.w3.org/2000/svg"
   xmlns:sodipodi="http://sodipodi.sourceforge.net/DTD/sodipodi-0.dtd"
   xmlns:inkscape="http://www.inkscape.org/namespaces/inkscape"
   version="1.1"
   viewBox="0 0 960 720"
   stroke-miterlimit="10"
   id="svg2"
   inkscape:version="0.91 r13725"
   sodipodi:docname="tipos-de-pesquisa.svg"
   width="960"
   height="720"
   style="fill:none;stroke:none;stroke-linecap:square;stroke-miterlimit:10">
  <metadata
     id="metadata95">
    <rdf:RDF>
      <cc:Work
         rdf:about="">
        <dc:format>image/svg+xml</dc:format>
        <dc:type
           rdf:resource="http://purl.org/dc/dcmitype/StillImage" />
      </cc:Work>
    </rdf:RDF>
  </metadata>
  <defs
     id="defs93" />
  <sodipodi:namedview
     pagecolor="#ffffff"
     bordercolor="#666666"
     borderopacity="1"
     objecttolerance="10"
     gridtolerance="10"
     guidetolerance="10"
     inkscape:pageopacity="0"
     inkscape:pageshadow="2"
     inkscape:window-width="640"
     inkscape:window-height="480"
     id="namedview91"
     showgrid="false"
     inkscape:zoom="0.32708333"
     inkscape:cx="480"
     inkscape:cy="360"
     inkscape:window-x="0"
     inkscape:window-y="24"
     inkscape:window-maximized="0"
     inkscape:current-layer="svg2" />
  <clipPath
     id="p.0">
    <path
       d="M 0,0 960,0 960,720 0,720 0,0 Z"
       id="path5"
       inkscape:connector-curvature="0"
       style="clip-rule:nonzero" />
  </clipPath>
  <g
     clip-path="url(#p.0)"
     id="g7">
    <path
       d="m 0,0 960,0 0,720 -960,0 z"
       id="path9"
       inkscape:connector-curvature="0"
       style="fill:#000000;fill-opacity:0;fill-rule:evenodd" />
    <path
       d="m 294,27 185.98425,0 0,45.16535 -185.98425,0 z"
       id="path11"
       inkscape:connector-curvature="0"
       style="fill:#000000;fill-opacity:0;fill-rule:evenodd" />
    <path
       d="m 294,27 185.98425,0 0,45.16535 -185.98425,0 z"
       id="path13"
       inkscape:connector-curvature="0"
       style="fill-rule:evenodd;stroke:#999999;stroke-width:1;stroke-linecap:butt;stroke-linejoin:round" />
    <path
       d="m 308.8769,43.85705 0,3.53125 2.5,0 0,0.8125 -2.5,0 0,6.96875 q 0,1.046875 0.29687,1.40625 0.29688,0.359375 0.76563,0.359375 0.39062,0 0.75,-0.234375 0.35937,-0.25 0.5625,-0.71875 l 0.45312,0 q -0.40625,1.15625 -1.15625,1.734375 -0.75,0.578125 -1.54687,0.578125 -0.54688,0 -1.0625,-0.296875 -0.51563,-0.296875 -0.76563,-0.84375 -0.23437,-0.5625 -0.23437,-1.734375 l 0,-7.21875 -1.70313,0 0,-0.375 q 0.64063,-0.265625 1.3125,-0.875 0.6875,-0.625 1.20313,-1.46875 0.28125,-0.4375 0.75,-1.625 l 0.375,0 z m 6.27734,-2.40625 q 0.48438,0 0.82813,0.359375 0.35937,0.34375 0.35937,0.828125 0,0.5 -0.35937,0.859375 -0.34375,0.34375 -0.82813,0.34375 -0.5,0 -0.85937,-0.34375 -0.34375,-0.359375 -0.34375,-0.859375 0,-0.484375 0.34375,-0.828125 0.35937,-0.359375 0.85937,-0.359375 z m 0.96875,5.625 0,8.625 q 0,1 0.14063,1.34375 0.15625,0.328125 0.4375,0.5 0.29687,0.15625 1.04687,0.15625 l 0,0.421875 -5.20312,0 0,-0.421875 q 0.78125,0 1.04687,-0.15625 0.26563,-0.15625 0.42188,-0.5 0.17187,-0.359375 0.17187,-1.34375 l 0,-4.140625 q 0,-1.75 -0.10937,-2.265625 -0.0781,-0.375 -0.26563,-0.515625 -0.17187,-0.15625 -0.46875,-0.15625 -0.32812,0 -0.79687,0.1875 l -0.17188,-0.421875 3.23438,-1.3125 0.51562,0 z m 2.1836,1.375 3.3125,-1.328125 0.45312,0 0,2.5 q 0.82813,-1.421875 1.65625,-1.984375 0.84375,-0.5625 1.76563,-0.5625 1.625,0 2.70312,1.265625 1.32813,1.546875 1.32813,4.03125 0,2.765625 -1.59375,4.59375 -1.3125,1.484375 -3.3125,1.484375 -0.85938,0 -1.5,-0.25 -0.46875,-0.171875 -1.04688,-0.703125 l 0,3.28125 q 0,1.09375 0.125,1.390625 0.14063,0.296875 0.46875,0.46875 0.34375,0.1875 1.21875,0.1875 l 0,0.4375 -5.625,0 0,-0.4375 0.29688,0 q 0.64062,0.01563 1.09375,-0.25 0.21875,-0.125 0.34375,-0.421875 0.125,-0.28125 0.125,-1.453125 l 0,-10.15625 q 0,-1.03125 -0.0937,-1.3125 -0.0937,-0.28125 -0.29688,-0.421875 -0.20312,-0.140625 -0.5625,-0.140625 -0.28125,0 -0.70312,0.15625 l -0.15625,-0.375 z m 3.76562,1.859375 0,4.015625 q 0,1.296875 0.0937,1.703125 0.17188,0.6875 0.8125,1.203125 0.64063,0.515625 1.60938,0.515625 1.17187,0 1.89062,-0.921875 0.95313,-1.1875 0.95313,-3.359375 0,-2.453125 -1.07813,-3.78125 -0.75,-0.921875 -1.78125,-0.921875 -0.5625,0 -1.10937,0.28125 -0.42188,0.21875 -1.39063,1.265625 z M 336.33784,47.0758 q 2.4375,0 3.92187,1.84375 1.25,1.578125 1.25,3.640625 0,1.4375 -0.70312,2.921875 -0.6875,1.46875 -1.90625,2.21875 -1.20313,0.75 -2.6875,0.75 -2.42188,0 -3.85938,-1.9375 -1.20312,-1.625 -1.20312,-3.65625 0,-1.46875 0.73437,-2.921875 0.73438,-1.46875 1.92188,-2.15625 1.20312,-0.703125 2.53125,-0.703125 z m -0.35938,0.75 q -0.625,0 -1.25,0.375 -0.625,0.375 -1.01562,1.296875 -0.39063,0.921875 -0.39063,2.375 0,2.34375 0.9375,4.046875 0.9375,1.703125 2.45313,1.703125 1.14062,0 1.875,-0.9375 0.73437,-0.9375 0.73437,-3.234375 0,-2.859375 -1.21875,-4.5 -0.84375,-1.125 -2.125,-1.125 z m 14.04688,-0.75 0,3.65625 -0.39063,0 q -0.4375,-1.734375 -1.14062,-2.34375 -0.6875,-0.625 -1.76563,-0.625 -0.82812,0 -1.32812,0.4375 -0.5,0.421875 -0.5,0.953125 0,0.65625 0.375,1.125 0.35937,0.484375 1.46875,1.015625 l 1.71875,0.84375 q 2.375,1.15625 2.375,3.046875 0,1.46875 -1.10938,2.375 -1.10937,0.890625 -2.48437,0.890625 -0.98438,0 -2.25,-0.359375 -0.375,-0.109375 -0.625,-0.109375 -0.26563,0 -0.42188,0.3125 l -0.39062,0 0,-3.84375 0.39062,0 q 0.32813,1.640625 1.25,2.484375 0.92188,0.828125 2.07813,0.828125 0.8125,0 1.3125,-0.46875 0.51562,-0.484375 0.51562,-1.15625 0,-0.8125 -0.57812,-1.359375 -0.5625,-0.546875 -2.26563,-1.390625 -1.6875,-0.84375 -2.21875,-1.53125 -0.53125,-0.65625 -0.53125,-1.6875 0,-1.3125 0.90625,-2.203125 0.90625,-0.890625 2.35938,-0.890625 0.625,0 1.53125,0.265625 0.59375,0.171875 0.79687,0.171875 0.1875,0 0.28125,-0.07813 0.10938,-0.07813 0.25,-0.359375 l 0.39063,0 z m 15.98047,9.84375 q -0.78125,0.8125 -1.53125,1.171875 -0.75,0.359375 -1.60938,0.359375 -1.76562,0 -3.07812,-1.46875 -1.3125,-1.46875 -1.3125,-3.78125 0,-2.3125 1.45312,-4.21875 1.45313,-1.921875 3.73438,-1.921875 1.42187,0 2.34375,0.90625 l 0,-1.984375 q 0,-1.84375 -0.0937,-2.265625 -0.0781,-0.421875 -0.26563,-0.5625 -0.1875,-0.15625 -0.46875,-0.15625 -0.29687,0 -0.8125,0.1875 l -0.14062,-0.421875 3.1875,-1.3125 0.53125,0 0,12.421875 q 0,1.875 0.0781,2.296875 0.0937,0.421875 0.28125,0.59375 0.20313,0.15625 0.46875,0.15625 0.3125,0 0.84375,-0.203125 l 0.125,0.40625 -3.1875,1.328125 -0.54687,0 0,-1.53125 z m 0,-0.828125 0,-5.53125 q -0.0625,-0.796875 -0.42188,-1.453125 -0.34375,-0.65625 -0.92187,-0.984375 -0.57813,-0.34375 -1.14063,-0.34375 -1.03125,0 -1.82812,0.9375 -1.07813,1.21875 -1.07813,3.5625 0,2.359375 1.03125,3.625 1.03125,1.25 2.29688,1.25 1.07812,0 2.0625,-1.0625 z m 6.23437,-4.65625 q -0.0156,2.390625 1.15625,3.75 1.17188,1.359375 2.75,1.359375 1.0625,0 1.82813,-0.578125 0.78125,-0.59375 1.3125,-2 l 0.35937,0.234375 q -0.23437,1.609375 -1.42187,2.9375 -1.1875,1.3125 -2.96875,1.3125 -1.9375,0 -3.3125,-1.5 -1.375,-1.515625 -1.375,-4.0625 0,-2.75 1.40625,-4.28125 1.42187,-1.546875 3.54687,-1.546875 1.8125,0 2.96875,1.1875 1.15625,1.1875 1.15625,3.1875 l -7.40625,0 z m 0,-0.6875 4.96875,0 q -0.0625,-1.03125 -0.25,-1.453125 -0.29687,-0.65625 -0.875,-1.03125 -0.57812,-0.375 -1.21875,-0.375 -0.96875,0 -1.73437,0.765625 -0.76563,0.75 -0.89063,2.09375 z m 14.0586,-2.296875 3.3125,-1.328125 0.45312,0 0,2.5 q 0.82813,-1.421875 1.65625,-1.984375 0.84375,-0.5625 1.76563,-0.5625 1.625,0 2.70312,1.265625 1.32813,1.546875 1.32813,4.03125 0,2.765625 -1.59375,4.59375 -1.3125,1.484375 -3.3125,1.484375 -0.85938,0 -1.5,-0.25 -0.46875,-0.171875 -1.04688,-0.703125 l 0,3.28125 q 0,1.09375 0.125,1.390625 0.14063,0.296875 0.46875,0.46875 0.34375,0.1875 1.21875,0.1875 l 0,0.4375 -5.625,0 0,-0.4375 0.29688,0 q 0.64062,0.01563 1.09375,-0.25 0.21875,-0.125 0.34375,-0.421875 0.125,-0.28125 0.125,-1.453125 l 0,-10.15625 q 0,-1.03125 -0.0937,-1.3125 -0.0937,-0.28125 -0.29688,-0.421875 -0.20312,-0.140625 -0.5625,-0.140625 -0.28125,0 -0.70312,0.15625 l -0.15625,-0.375 z m 3.76562,1.859375 0,4.015625 q 0,1.296875 0.0937,1.703125 0.17188,0.6875 0.8125,1.203125 0.64063,0.515625 1.60938,0.515625 1.17187,0 1.89062,-0.921875 0.95313,-1.1875 0.95313,-3.359375 0,-2.453125 -1.07813,-3.78125 -0.75,-0.921875 -1.78125,-0.921875 -0.5625,0 -1.10937,0.28125 -0.42188,0.21875 -1.39063,1.265625 z m 10.82813,1.125 q -0.0156,2.390625 1.15625,3.75 1.17187,1.359375 2.75,1.359375 1.0625,0 1.82812,-0.578125 0.78125,-0.59375 1.3125,-2 l 0.35938,0.234375 q -0.23438,1.609375 -1.42188,2.9375 -1.1875,1.3125 -2.96875,1.3125 -1.9375,0 -3.3125,-1.5 -1.375,-1.515625 -1.375,-4.0625 0,-2.75 1.40625,-4.28125 1.42188,-1.546875 3.54688,-1.546875 1.8125,0 2.96875,1.1875 1.15625,1.1875 1.15625,3.1875 l -7.40625,0 z m 0,-0.6875 4.96875,0 q -0.0625,-1.03125 -0.25,-1.453125 -0.29688,-0.65625 -0.875,-1.03125 -0.57813,-0.375 -1.21875,-0.375 -0.96875,0 -1.73438,0.765625 -0.76562,0.75 -0.89062,2.09375 z m 15.77734,-3.671875 0,3.65625 -0.39063,0 q -0.4375,-1.734375 -1.14062,-2.34375 -0.6875,-0.625 -1.76563,-0.625 -0.82812,0 -1.32812,0.4375 -0.5,0.421875 -0.5,0.953125 0,0.65625 0.375,1.125 0.35937,0.484375 1.46875,1.015625 l 1.71875,0.84375 q 2.375,1.15625 2.375,3.046875 0,1.46875 -1.10938,2.375 -1.10937,0.890625 -2.48437,0.890625 -0.98438,0 -2.25,-0.359375 -0.375,-0.109375 -0.625,-0.109375 -0.26563,0 -0.42188,0.3125 l -0.39062,0 0,-3.84375 0.39062,0 q 0.32813,1.640625 1.25,2.484375 0.92188,0.828125 2.07813,0.828125 0.8125,0 1.3125,-0.46875 0.51562,-0.484375 0.51562,-1.15625 0,-0.8125 -0.57812,-1.359375 -0.5625,-0.546875 -2.26563,-1.390625 -1.6875,-0.84375 -2.21875,-1.53125 -0.53125,-0.65625 -0.53125,-1.6875 0,-1.3125 0.90625,-2.203125 0.90625,-0.890625 2.35938,-0.890625 0.625,0 1.53125,0.265625 0.59375,0.171875 0.79687,0.171875 0.1875,0 0.28125,-0.07813 0.10938,-0.07813 0.25,-0.359375 l 0.39063,0 z m 11.90234,0 0,13.796875 q 0,1.03125 0.14063,1.328125 0.14062,0.296875 0.4375,0.453125 0.3125,0.171875 1.17187,0.171875 l 0,0.4375 -5.40625,0 0,-0.4375 0.21875,0 q 0.65625,0 1,-0.1875 0.23438,-0.125 0.375,-0.46875 0.14063,-0.328125 0.14063,-1.296875 l 0,-4.609375 q -1.07813,1.265625 -1.875,1.734375 -0.79688,0.453125 -1.64063,0.453125 -1.5625,0 -2.79687,-1.421875 -1.21875,-1.421875 -1.21875,-3.796875 0,-2.734375 1.60937,-4.4375 1.625,-1.71875 3.90625,-1.71875 0.67188,0 1.23438,0.1875 0.5625,0.1875 1.01562,0.5625 0.67188,-0.328125 1.29688,-0.75 l 0.39062,0 z m -1.92187,8.4375 0,-5.03125 q 0,-0.875 -0.23438,-1.375 -0.23437,-0.515625 -0.82812,-0.859375 -0.57813,-0.359375 -1.3125,-0.359375 -1.3125,0 -2.25,1.125 -0.9375,1.109375 -0.9375,3.359375 0,2.171875 0.95312,3.296875 0.95313,1.125 2.3125,1.125 0.6875,0 1.21875,-0.296875 0.54688,-0.296875 1.07813,-0.984375 z m 13.82812,-8.125 0,6.5 q 0,1.859375 0.0937,2.28125 0.0937,0.421875 0.28125,0.59375 0.1875,0.15625 0.45313,0.15625 0.35937,0 0.8125,-0.203125 l 0.17187,0.40625 -3.21875,1.328125 -0.51562,0 0,-2.28125 q -1.39063,1.5 -2.125,1.890625 -0.71875,0.390625 -1.53125,0.390625 -0.89063,0 -1.5625,-0.515625 -0.65625,-0.53125 -0.92188,-1.34375 -0.25,-0.828125 -0.25,-2.328125 l 0,-4.796875 q 0,-0.75 -0.17187,-1.046875 -0.15625,-0.296875 -0.48438,-0.453125 -0.3125,-0.15625 -1.15625,-0.140625 l 0,-0.4375 3.75,0 0,7.1875 q 0,1.5 0.51563,1.96875 0.53125,0.46875 1.26562,0.46875 0.51563,0 1.14063,-0.3125 0.64062,-0.328125 1.53125,-1.21875 l 0,-6.078125 q 0,-0.921875 -0.34375,-1.234375 -0.32813,-0.328125 -1.39063,-0.34375 l 0,-0.4375 3.65625,0 z m 5.32813,-5.9375 q 0.48437,0 0.82812,0.359375 0.35938,0.34375 0.35938,0.828125 0,0.5 -0.35938,0.859375 -0.34375,0.34375 -0.82812,0.34375 -0.5,0 -0.85938,-0.34375 -0.34375,-0.359375 -0.34375,-0.859375 0,-0.484375 0.34375,-0.828125 0.35938,-0.359375 0.85938,-0.359375 z m 0.96875,5.625 0,8.625 q 0,1 0.14062,1.34375 0.15625,0.328125 0.4375,0.5 0.29688,0.15625 1.04688,0.15625 l 0,0.421875 -5.20313,0 0,-0.421875 q 0.78125,0 1.04688,-0.15625 0.26562,-0.15625 0.42187,-0.5 0.17188,-0.359375 0.17188,-1.34375 l 0,-4.140625 q 0,-1.75 -0.10938,-2.265625 -0.0781,-0.375 -0.26562,-0.515625 -0.17188,-0.15625 -0.46875,-0.15625 -0.32813,0 -0.79688,0.1875 l -0.17187,-0.421875 3.23437,-1.3125 0.51563,0 z m 9.90234,0 0,3.65625 -0.39062,0 q -0.4375,-1.734375 -1.14063,-2.34375 -0.6875,-0.625 -1.76562,-0.625 -0.82813,0 -1.32813,0.4375 -0.5,0.421875 -0.5,0.953125 0,0.65625 0.375,1.125 0.35938,0.484375 1.46875,1.015625 l 1.71875,0.84375 q 2.375,1.15625 2.375,3.046875 0,1.46875 -1.10937,2.375 -1.10938,0.890625 -2.48438,0.890625 -0.98437,0 -2.25,-0.359375 -0.375,-0.109375 -0.625,-0.109375 -0.26562,0 -0.42187,0.3125 l -0.39063,0 0,-3.84375 0.39063,0 q 0.32812,1.640625 1.25,2.484375 0.92187,0.828125 2.07812,0.828125 0.8125,0 1.3125,-0.46875 0.51563,-0.484375 0.51563,-1.15625 0,-0.8125 -0.57813,-1.359375 -0.5625,-0.546875 -2.26562,-1.390625 -1.6875,-0.84375 -2.21875,-1.53125 -0.53125,-0.65625 -0.53125,-1.6875 0,-1.3125 0.90625,-2.203125 0.90625,-0.890625 2.35937,-0.890625 0.625,0 1.53125,0.265625 0.59375,0.171875 0.79688,0.171875 0.1875,0 0.28125,-0.07813 0.10937,-0.07813 0.25,-0.359375 l 0.39062,0 z m 8.48047,9.5 q -1.64062,1.28125 -2.0625,1.46875 -0.64062,0.296875 -1.35937,0.296875 -1.10938,0 -1.82813,-0.75 -0.71875,-0.765625 -0.71875,-2.015625 0,-0.78125 0.34375,-1.359375 0.48438,-0.796875 1.67188,-1.5 1.1875,-0.703125 3.95312,-1.703125 l 0,-0.421875 q 0,-1.609375 -0.51562,-2.203125 -0.5,-0.609375 -1.46875,-0.609375 -0.73438,0 -1.17188,0.40625 -0.45312,0.390625 -0.45312,0.90625 l 0.0312,0.6875 q 0,0.53125 -0.28125,0.828125 -0.26563,0.296875 -0.71875,0.296875 -0.4375,0 -0.71875,-0.296875 -0.26563,-0.3125 -0.26563,-0.84375 0,-1 1.03125,-1.84375 1.03125,-0.84375 2.89063,-0.84375 1.4375,0 2.34375,0.46875 0.70312,0.375 1.03125,1.140625 0.20312,0.5 0.20312,2.0625 l 0,3.640625 q 0,1.546875 0.0625,1.890625 0.0625,0.34375 0.1875,0.46875 0.14063,0.109375 0.3125,0.109375 0.1875,0 0.32813,-0.07813 0.25,-0.15625 0.95312,-0.859375 l 0,0.65625 q -1.3125,1.765625 -2.51562,1.765625 -0.5625,0 -0.90625,-0.40625 -0.34375,-0.40625 -0.35938,-1.359375 z m 0,-0.765625 0,-4.09375 q -1.76562,0.703125 -2.28125,1 -0.92187,0.515625 -1.32812,1.078125 -0.39063,0.5625 -0.39063,1.234375 0,0.84375 0.5,1.40625 0.5,0.546875 1.15625,0.546875 0.89063,0 2.34375,-1.171875 z"
       id="path15"
       inkscape:connector-curvature="0"
       style="fill:#666666;fill-rule:nonzero" />
    <path
       d="m 386.99213,72.16535 -0.15747,70.33071"
       id="path17"
       inkscape:connector-curvature="0"
       style="fill:#000000;fill-opacity:0;fill-rule:evenodd" />
    <path
       d="m 386.99213,72.16535 -0.15747,70.33071"
       id="path19"
       inkscape:connector-curvature="0"
       style="fill-rule:evenodd;stroke:#999999;stroke-width:1;stroke-linecap:butt;stroke-linejoin:round" />
    <path
       d="M 273.62204,144.44095 523.7323,142.39371"
       id="path21"
       inkscape:connector-curvature="0"
       style="fill:#000000;fill-opacity:0;fill-rule:evenodd" />
    <path
       d="M 273.62204,144.44095 523.7323,142.39371"
       id="path23"
       inkscape:connector-curvature="0"
       style="fill-rule:evenodd;stroke:#999999;stroke-width:1;stroke-linecap:butt;stroke-linejoin:round" />
    <path
       d="m 616.72705,166.19948 -0.47247,114.99211"
       id="path25"
       inkscape:connector-curvature="0"
       style="fill:#000000;fill-opacity:0;fill-rule:evenodd" />
    <path
       d="m 616.72705,166.19948 -0.47247,114.99211"
       id="path27"
       inkscape:connector-curvature="0"
       style="fill-rule:evenodd;stroke:#999999;stroke-width:1;stroke-linecap:butt;stroke-linejoin:round" />
    <path
       d="m 673.01575,280.99738 -112.8819,0.18896"
       id="path29"
       inkscape:connector-curvature="0"
       style="fill:#000000;fill-opacity:0;fill-rule:evenodd" />
    <path
       d="m 673.01575,280.99738 -112.8819,0.18896"
       id="path31"
       inkscape:connector-curvature="0"
       style="fill-rule:evenodd;stroke:#999999;stroke-width:1;stroke-linecap:butt;stroke-linejoin:round" />
    <path
       d="m 467.14172,303.76904 0,92.37793"
       id="path33"
       inkscape:connector-curvature="0"
       style="fill:#000000;fill-opacity:0;fill-rule:evenodd" />
    <path
       d="m 467.14172,303.76904 0,92.37793"
       id="path35"
       inkscape:connector-curvature="0"
       style="fill-rule:evenodd;stroke:#999999;stroke-width:1;stroke-linecap:butt;stroke-linejoin:round" />
    <path
       d="m 153.12862,396.0735 0.37794,-55.81101"
       id="path37"
       inkscape:connector-curvature="0"
       style="fill:#000000;fill-opacity:0;fill-rule:evenodd" />
    <path
       d="m 153.12862,396.0735 0.37794,-55.81101"
       id="path39"
       inkscape:connector-curvature="0"
       style="fill-rule:evenodd;stroke:#999999;stroke-width:1;stroke-linecap:butt;stroke-linejoin:round" />
    <path
       d="m 822.8714,396.0735 0.37793,-55.55905"
       id="path41"
       inkscape:connector-curvature="0"
       style="fill:#000000;fill-opacity:0;fill-rule:evenodd" />
    <path
       d="m 822.8714,396.0735 0.37793,-55.55905"
       id="path43"
       inkscape:connector-curvature="0"
       style="fill-rule:evenodd;stroke:#999999;stroke-width:1;stroke-linecap:butt;stroke-linejoin:round" />
    <path
       d="m 153.75066,340.75067 669.7638,0.25195"
       id="path45"
       inkscape:connector-curvature="0"
       style="fill:#000000;fill-opacity:0;fill-rule:evenodd" />
    <path
       d="m 153.75066,340.75067 669.7638,0.25195"
       id="path47"
       inkscape:connector-curvature="0"
       style="fill-rule:evenodd;stroke:#999999;stroke-width:1;stroke-linecap:butt;stroke-linejoin:round" />
    <path
       d="m 87.63517,119.8084 185.98425,0 0,45.16535 -185.98425,0 z"
       id="path49"
       inkscape:connector-curvature="0"
       style="fill:#000000;fill-opacity:0;fill-rule:evenodd" />
    <path
       d="m 87.63517,119.8084 185.98425,0 0,45.16535 -185.98425,0 z"
       id="path51"
       inkscape:connector-curvature="0"
       style="fill-rule:evenodd;stroke:#999999;stroke-width:1;stroke-linecap:butt;stroke-linejoin:round" />
    <path
       d="m 149.86559,139.8842 0,2.40625 q 1.34375,-2.40625 2.76562,-2.40625 0.64063,0 1.0625,0.39062 0.42188,0.39063 0.42188,0.90625 0,0.45313 -0.3125,0.78125 -0.29688,0.3125 -0.71875,0.3125 -0.40625,0 -0.92188,-0.40625 -0.5,-0.40625 -0.75,-0.40625 -0.20312,0 -0.45312,0.23438 -0.53125,0.48437 -1.09375,1.57812 l 0,5.14063 q 0,0.89062 0.21875,1.35937 0.15625,0.3125 0.54687,0.53125 0.39063,0.20313 1.10938,0.20313 l 0,0.42187 -5.5,0 0,-0.42187 q 0.82812,0 1.21875,-0.26563 0.29687,-0.1875 0.42187,-0.59375 0.0469,-0.20312 0.0469,-1.14062 l 0,-4.15625 q 0,-1.875 -0.0781,-2.23438 -0.0625,-0.35937 -0.28125,-0.51562 -0.20312,-0.17188 -0.5,-0.17188 -0.35937,0 -0.82812,0.1875 l -0.10938,-0.42187 3.25,-1.3125 0.48438,0 z m 6.66406,4.35937 q -0.0156,2.39063 1.15625,3.75 1.17188,1.35938 2.75,1.35938 1.0625,0 1.82813,-0.57813 0.78125,-0.59375 1.3125,-2 l 0.35937,0.23438 q -0.23437,1.60937 -1.42187,2.9375 -1.1875,1.3125 -2.96875,1.3125 -1.9375,0 -3.3125,-1.5 -1.375,-1.51563 -1.375,-4.0625 0,-2.75 1.40625,-4.28125 1.42187,-1.54688 3.54687,-1.54688 1.8125,0 2.96875,1.1875 1.15625,1.1875 1.15625,3.1875 l -7.40625,0 z m 0,-0.6875 4.96875,0 q -0.0625,-1.03125 -0.25,-1.45312 -0.29687,-0.65625 -0.875,-1.03125 -0.57812,-0.375 -1.21875,-0.375 -0.96875,0 -1.73437,0.76562 -0.76563,0.75 -0.89063,2.09375 z m 8.29297,-3.35937 5.04688,0 0,0.4375 -0.32813,0 q -0.45312,0 -0.70312,0.21875 -0.23438,0.21875 -0.23438,0.59375 0,0.40625 0.25,0.96875 l 2.5,5.9375 2.5,-6.15625 q 0.26563,-0.65625 0.26563,-1 0,-0.15625 -0.0937,-0.26563 -0.125,-0.17187 -0.32813,-0.23437 -0.1875,-0.0625 -0.79687,-0.0625 l 0,-0.4375 3.5,0 0,0.4375 q -0.60938,0.0469 -0.84375,0.23437 -0.40625,0.35938 -0.73438,1.17188 l -3.8125,9.21875 -0.48437,0 -3.82813,-9.0625 q -0.26562,-0.625 -0.5,-0.90625 -0.23437,-0.28125 -0.59375,-0.46875 -0.20312,-0.0937 -0.78125,-0.1875 l 0,-0.4375 z m 15.28125,-5.9375 q 0.48438,0 0.82813,0.35937 0.35937,0.34375 0.35937,0.82813 0,0.5 -0.35937,0.85937 -0.34375,0.34375 -0.82813,0.34375 -0.5,0 -0.85937,-0.34375 -0.34375,-0.35937 -0.34375,-0.85937 0,-0.48438 0.34375,-0.82813 0.35937,-0.35937 0.85937,-0.35937 z m 0.96875,5.625 0,8.625 q 0,1 0.14063,1.34375 0.15625,0.32812 0.4375,0.5 0.29687,0.15625 1.04687,0.15625 l 0,0.42187 -5.20312,0 0,-0.42187 q 0.78125,0 1.04687,-0.15625 0.26563,-0.15625 0.42188,-0.5 0.17187,-0.35938 0.17187,-1.34375 l 0,-4.14063 q 0,-1.75 -0.10937,-2.26562 -0.0781,-0.375 -0.26563,-0.51563 -0.17187,-0.15625 -0.46875,-0.15625 -0.32812,0 -0.79687,0.1875 l -0.17188,-0.42187 3.23438,-1.3125 0.51562,0 z m 9.90235,0 0,3.65625 -0.39063,0 q -0.4375,-1.73438 -1.14062,-2.34375 -0.6875,-0.625 -1.76563,-0.625 -0.82812,0 -1.32812,0.4375 -0.5,0.42187 -0.5,0.95312 0,0.65625 0.375,1.125 0.35937,0.48438 1.46875,1.01563 l 1.71875,0.84375 q 2.375,1.15625 2.375,3.04687 0,1.46875 -1.10938,2.375 -1.10937,0.89063 -2.48437,0.89063 -0.98438,0 -2.25,-0.35938 -0.375,-0.10937 -0.625,-0.10937 -0.26563,0 -0.42188,0.3125 l -0.39062,0 0,-3.84375 0.39062,0 q 0.32813,1.64062 1.25,2.48437 0.92188,0.82813 2.07813,0.82813 0.8125,0 1.3125,-0.46875 0.51562,-0.48438 0.51562,-1.15625 0,-0.8125 -0.57812,-1.35938 -0.5625,-0.54687 -2.26563,-1.39062 -1.6875,-0.84375 -2.21875,-1.53125 -0.53125,-0.65625 -0.53125,-1.6875 0,-1.3125 0.90625,-2.20313 0.90625,-0.89062 2.35938,-0.89062 0.625,0 1.53125,0.26562 0.59375,0.17188 0.79687,0.17188 0.1875,0 0.28125,-0.0781 0.10938,-0.0781 0.25,-0.35937 l 0.39063,0 z m 8.48046,9.5 q -1.64062,1.28125 -2.0625,1.46875 -0.64062,0.29687 -1.35937,0.29687 -1.10938,0 -1.82813,-0.75 -0.71875,-0.76562 -0.71875,-2.01562 0,-0.78125 0.34375,-1.35938 0.48438,-0.79687 1.67188,-1.5 1.1875,-0.70312 3.95312,-1.70312 l 0,-0.42188 q 0,-1.60937 -0.51562,-2.20312 -0.5,-0.60938 -1.46875,-0.60938 -0.73438,0 -1.17188,0.40625 -0.45312,0.39063 -0.45312,0.90625 l 0.0312,0.6875 q 0,0.53125 -0.28125,0.82813 -0.26563,0.29687 -0.71875,0.29687 -0.4375,0 -0.71875,-0.29687 -0.26563,-0.3125 -0.26563,-0.84375 0,-1 1.03125,-1.84375 1.03125,-0.84375 2.89063,-0.84375 1.4375,0 2.34375,0.46875 0.70312,0.375 1.03125,1.14062 0.20312,0.5 0.20312,2.0625 l 0,3.64063 q 0,1.54687 0.0625,1.89062 0.0625,0.34375 0.1875,0.46875 0.14063,0.10938 0.3125,0.10938 0.1875,0 0.32813,-0.0781 0.25,-0.15625 0.95312,-0.85937 l 0,0.65625 q -1.3125,1.76562 -2.51562,1.76562 -0.5625,0 -0.90625,-0.40625 -0.34375,-0.40625 -0.35938,-1.35937 z m 0,-0.76563 0,-4.09375 q -1.76562,0.70313 -2.28125,1 -0.92187,0.51563 -1.32812,1.07813 -0.39063,0.5625 -0.39063,1.23437 0,0.84375 0.5,1.40625 0.5,0.54688 1.15625,0.54688 0.89063,0 2.34375,-1.17188 z m -5.1875,-10.54687 -0.375,0 q 0.0469,-1.60938 0.65625,-2.3125 0.625,-0.71875 1.54688,-0.71875 0.46875,0 0.875,0.15625 0.53125,0.1875 1.48437,0.82812 0.96875,0.64063 1.4375,0.64063 0.375,0 0.65625,-0.3125 0.29688,-0.3125 0.46875,-1.3125 l 0.35938,0 q 0.0156,1.09375 -0.29688,1.73437 -0.29687,0.625 -0.84375,0.98438 -0.53125,0.35937 -1.09375,0.35937 -0.92187,0 -2.29687,-0.9375 -0.73438,-0.5 -1,-0.60937 -0.25,-0.10938 -0.5,-0.10938 -0.46875,0 -0.75,0.42188 -0.14063,0.20312 -0.32813,1.1875 z m 15.01172,1.8125 q 2.4375,0 3.92188,1.84375 1.25,1.57812 1.25,3.64062 0,1.4375 -0.70313,2.92188 -0.6875,1.46875 -1.90625,2.21875 -1.20312,0.75 -2.6875,0.75 -2.42187,0 -3.85937,-1.9375 -1.20313,-1.625 -1.20313,-3.65625 0,-1.46875 0.73438,-2.92188 0.73437,-1.46875 1.92187,-2.15625 1.20313,-0.70312 2.53125,-0.70312 z m -0.35937,0.75 q -0.625,0 -1.25,0.375 -0.625,0.375 -1.01563,1.29687 -0.39062,0.92188 -0.39062,2.375 0,2.34375 0.9375,4.04688 0.9375,1.70312 2.45312,1.70312 1.14063,0 1.875,-0.9375 0.73438,-0.9375 0.73438,-3.23437 0,-2.85938 -1.21875,-4.5 -0.84375,-1.125 -2.125,-1.125 z"
       id="path53"
       inkscape:connector-curvature="0"
       style="fill:#666666;fill-rule:nonzero" />
    <path
       d="m 523.7349,121.03412 185.98425,0 0,45.16536 -185.98425,0 z"
       id="path55"
       inkscape:connector-curvature="0"
       style="fill:#000000;fill-opacity:0;fill-rule:evenodd" />
    <path
       d="m 523.7349,121.03412 185.98425,0 0,45.16536 -185.98425,0 z"
       id="path57"
       inkscape:connector-curvature="0"
       style="fill-rule:evenodd;stroke:#999999;stroke-width:1;stroke-linecap:butt;stroke-linejoin:round" />
    <path
       d="m 585.40283,141.10992 q 2.4375,0 3.92187,1.84375 1.25,1.57812 1.25,3.64062 0,1.4375 -0.70312,2.92188 -0.6875,1.46875 -1.90625,2.21875 -1.20313,0.75 -2.6875,0.75 -2.42188,0 -3.85938,-1.9375 -1.20312,-1.625 -1.20312,-3.65625 0,-1.46875 0.73437,-2.92188 0.73438,-1.46875 1.92188,-2.15625 1.20312,-0.70312 2.53125,-0.70312 z m -0.35938,0.75 q -0.625,0 -1.25,0.375 -0.625,0.375 -1.01562,1.29687 -0.39063,0.92188 -0.39063,2.375 0,2.34375 0.9375,4.04688 0.9375,1.70312 2.45313,1.70312 1.14062,0 1.875,-0.9375 0.73437,-0.9375 0.73437,-3.23437 0,-2.85938 -1.21875,-4.5 -0.84375,-1.125 -2.125,-1.125 z m 10.25,-0.75 0,2.40625 q 1.34375,-2.40625 2.76563,-2.40625 0.64062,0 1.0625,0.39062 0.42187,0.39063 0.42187,0.90625 0,0.45313 -0.3125,0.78125 -0.29687,0.3125 -0.71875,0.3125 -0.40625,0 -0.92187,-0.40625 -0.5,-0.40625 -0.75,-0.40625 -0.20313,0 -0.45313,0.23438 -0.53125,0.48437 -1.09375,1.57812 l 0,5.14063 q 0,0.89062 0.21875,1.35937 0.15625,0.3125 0.54688,0.53125 0.39062,0.20313 1.10937,0.20313 l 0,0.42187 -5.5,0 0,-0.42187 q 0.82813,0 1.21875,-0.26563 0.29688,-0.1875 0.42188,-0.59375 0.0469,-0.20312 0.0469,-1.14062 l 0,-4.15625 q 0,-1.875 -0.0781,-2.23438 -0.0625,-0.35937 -0.28125,-0.51562 -0.20313,-0.17188 -0.5,-0.17188 -0.35938,0 -0.82813,0.1875 l -0.10937,-0.42187 3.25,-1.3125 0.48437,0 z m 7.58594,-5.625 q 0.48438,0 0.82813,0.35937 0.35937,0.34375 0.35937,0.82813 0,0.5 -0.35937,0.85937 -0.34375,0.34375 -0.82813,0.34375 -0.5,0 -0.85937,-0.34375 -0.34375,-0.35937 -0.34375,-0.85937 0,-0.48438 0.34375,-0.82813 0.35937,-0.35937 0.85937,-0.35937 z m 0.96875,5.625 0,8.625 q 0,1 0.14063,1.34375 0.15625,0.32812 0.4375,0.5 0.29687,0.15625 1.04687,0.15625 l 0,0.42187 -5.20312,0 0,-0.42187 q 0.78125,0 1.04687,-0.15625 0.26563,-0.15625 0.42188,-0.5 0.17187,-0.35938 0.17187,-1.34375 l 0,-4.14063 q 0,-1.75 -0.10937,-2.26562 -0.0781,-0.375 -0.26563,-0.51563 -0.17187,-0.15625 -0.46875,-0.15625 -0.32812,0 -0.79687,0.1875 l -0.17188,-0.42187 3.23438,-1.3125 0.51562,0 z m 5.83985,7.125 q -0.98438,-0.46875 -1.51563,-1.32813 -0.53125,-0.875 -0.53125,-1.90625 0,-1.59375 1.20313,-2.73437 1.20312,-1.15625 3.07812,-1.15625 1.53125,0 2.65625,0.75 l 2.28125,0 q 0.5,0 0.57813,0.0312 0.0937,0.0156 0.125,0.0937 0.0625,0.10937 0.0625,0.375 0,0.29687 -0.0469,0.42187 -0.0469,0.0625 -0.14062,0.0937 -0.0781,0.0312 -0.57813,0.0312 l -1.39062,0 q 0.65625,0.84375 0.65625,2.15625 0,1.5 -1.15625,2.57813 -1.14063,1.0625 -3.07813,1.0625 -0.79687,0 -1.625,-0.23438 -0.51562,0.4375 -0.70312,0.78125 -0.1875,0.32813 -0.1875,0.5625 0,0.20313 0.1875,0.39063 0.20312,0.1875 0.76562,0.26562 0.32813,0.0469 1.64063,0.0781 2.42187,0.0625 3.125,0.17187 1.09375,0.14063 1.73437,0.8125 0.65625,0.65625 0.65625,1.60938 0,1.32812 -1.23437,2.48437 -1.82813,1.71875 -4.76563,1.71875 -2.26562,0 -3.82812,-1.03125 -0.875,-0.57812 -0.875,-1.21875 0,-0.28125 0.125,-0.5625 0.20312,-0.42187 0.82812,-1.20312 0.0781,-0.10938 1.1875,-1.26563 -0.60937,-0.35937 -0.85937,-0.64062 -0.25,-0.29688 -0.25,-0.65625 0,-0.42188 0.32812,-0.96875 0.34375,-0.54688 1.54688,-1.5625 z m 2.03125,-6.5625 q -0.85938,0 -1.45313,0.6875 -0.57812,0.6875 -0.57812,2.125 0,1.84375 0.79687,2.85937 0.60938,0.78125 1.54688,0.78125 0.89062,0 1.45312,-0.67187 0.57813,-0.67188 0.57813,-2.09375 0,-1.85938 -0.79688,-2.92188 -0.60937,-0.76562 -1.54687,-0.76562 z m -2.15625,10.48437 q -0.54688,0.59375 -0.82813,1.10938 -0.28125,0.51562 -0.28125,0.95312 0,0.5625 0.6875,0.98438 1.17188,0.73437 3.375,0.73437 2.10938,0 3.10938,-0.75 1.01562,-0.75 1.01562,-1.59375 0,-0.60937 -0.60937,-0.85937 -0.60938,-0.26563 -2.40625,-0.3125 -2.64063,-0.0625 -4.0625,-0.26563 z m 11.98437,-16.67187 q 0.48438,0 0.82813,0.35937 0.35937,0.34375 0.35937,0.82813 0,0.5 -0.35937,0.85937 -0.34375,0.34375 -0.82813,0.34375 -0.5,0 -0.85937,-0.34375 -0.34375,-0.35937 -0.34375,-0.85937 0,-0.48438 0.34375,-0.82813 0.35937,-0.35937 0.85937,-0.35937 z m 0.96875,5.625 0,8.625 q 0,1 0.14063,1.34375 0.15625,0.32812 0.4375,0.5 0.29687,0.15625 1.04687,0.15625 l 0,0.42187 -5.20312,0 0,-0.42187 q 0.78125,0 1.04687,-0.15625 0.26563,-0.15625 0.42188,-0.5 0.17187,-0.35938 0.17187,-1.34375 l 0,-4.14063 q 0,-1.75 -0.10937,-2.26562 -0.0781,-0.375 -0.26563,-0.51563 -0.17187,-0.15625 -0.46875,-0.15625 -0.32812,0 -0.79687,0.1875 l -0.17188,-0.42187 3.23438,-1.3125 0.51562,0 z m 6.08985,2.26562 q 1.89062,-2.26562 3.60937,-2.26562 0.875,0 1.5,0.4375 0.64063,0.4375 1.01563,1.4375 0.25,0.70312 0.25,2.15625 l 0,4.59375 q 0,1.01562 0.17187,1.375 0.125,0.29687 0.40625,0.46875 0.29688,0.15625 1.0625,0.15625 l 0,0.42187 -5.29687,0 0,-0.42187 0.21875,0 q 0.75,0 1.04687,-0.21875 0.29688,-0.23438 0.42188,-0.6875 0.0469,-0.17188 0.0469,-1.09375 l 0,-4.40625 q 0,-1.45313 -0.39062,-2.10938 -0.375,-0.67187 -1.28125,-0.67187 -1.39063,0 -2.78125,1.51562 l 0,5.67188 q 0,1.07812 0.14062,1.34375 0.15625,0.34375 0.4375,0.5 0.29688,0.15625 1.17188,0.15625 l 0,0.42187 -5.3125,0 0,-0.42187 0.23437,0 q 0.82813,0 1.10938,-0.40625 0.29687,-0.42188 0.29687,-1.59375 l 0,-3.98438 q 0,-1.9375 -0.0937,-2.35937 -0.0937,-0.42188 -0.28125,-0.57813 -0.17187,-0.15625 -0.46875,-0.15625 -0.32812,0 -0.79687,0.1875 l -0.17188,-0.42187 3.23438,-1.3125 0.5,0 0,2.26562 z m 14.95312,7.23438 q -1.64062,1.28125 -2.0625,1.46875 -0.64062,0.29687 -1.35937,0.29687 -1.10938,0 -1.82813,-0.75 -0.71875,-0.76562 -0.71875,-2.01562 0,-0.78125 0.34375,-1.35938 0.48438,-0.79687 1.67188,-1.5 1.1875,-0.70312 3.95312,-1.70312 l 0,-0.42188 q 0,-1.60937 -0.51562,-2.20312 -0.5,-0.60938 -1.46875,-0.60938 -0.73438,0 -1.17188,0.40625 -0.45312,0.39063 -0.45312,0.90625 l 0.0312,0.6875 q 0,0.53125 -0.28125,0.82813 -0.26563,0.29687 -0.71875,0.29687 -0.4375,0 -0.71875,-0.29687 -0.26563,-0.3125 -0.26563,-0.84375 0,-1 1.03125,-1.84375 1.03125,-0.84375 2.89063,-0.84375 1.4375,0 2.34375,0.46875 0.70312,0.375 1.03125,1.14062 0.20312,0.5 0.20312,2.0625 l 0,3.64063 q 0,1.54687 0.0625,1.89062 0.0625,0.34375 0.1875,0.46875 0.14063,0.10938 0.3125,0.10938 0.1875,0 0.32813,-0.0781 0.25,-0.15625 0.95312,-0.85937 l 0,0.65625 q -1.3125,1.76562 -2.51562,1.76562 -0.5625,0 -0.90625,-0.40625 -0.34375,-0.40625 -0.35938,-1.35937 z m 0,-0.76563 0,-4.09375 q -1.76562,0.70313 -2.28125,1 -0.92187,0.51563 -1.32812,1.07813 -0.39063,0.5625 -0.39063,1.23437 0,0.84375 0.5,1.40625 0.5,0.54688 1.15625,0.54688 0.89063,0 2.34375,-1.17188 z m 8.26172,-14.35937 0,14.25 q 0,1 0.14062,1.32812 0.15625,0.32813 0.45313,0.5 0.3125,0.17188 1.14062,0.17188 l 0,0.42187 -5.25,0 0,-0.42187 q 0.73438,0 1,-0.15625 0.26563,-0.15625 0.42188,-0.5 0.15625,-0.35938 0.15625,-1.34375 l 0,-9.75 q 0,-1.82813 -0.0937,-2.23438 -0.0781,-0.42187 -0.26563,-0.5625 -0.17187,-0.15625 -0.45312,-0.15625 -0.29688,0 -0.76563,0.1875 l -0.20312,-0.42187 3.20312,-1.3125 0.51563,0 z"
       id="path59"
       inkscape:connector-curvature="0"
       style="fill:#666666;fill-rule:nonzero" />
    <path
       d="m 374.1496,258.60367 185.98425,0 0,45.16537 -185.98425,0 z"
       id="path61"
       inkscape:connector-curvature="0"
       style="fill:#000000;fill-opacity:0;fill-rule:evenodd" />
    <path
       d="m 374.1496,258.60367 185.98425,0 0,45.16537 -185.98425,0 z"
       id="path63"
       inkscape:connector-curvature="0"
       style="fill-rule:evenodd;stroke:#999999;stroke-width:1;stroke-linecap:butt;stroke-linejoin:round" />
    <path
       d="m 427.72766,283.03885 q -0.0156,2.39063 1.15625,3.75 1.17188,1.35938 2.75,1.35938 1.0625,0 1.82813,-0.57813 0.78125,-0.59375 1.3125,-2 l 0.35937,0.23438 q -0.23437,1.60937 -1.42187,2.9375 -1.1875,1.3125 -2.96875,1.3125 -1.9375,0 -3.3125,-1.5 -1.375,-1.51563 -1.375,-4.0625 0,-2.75 1.40625,-4.28125 1.42187,-1.54688 3.54687,-1.54688 1.8125,0 2.96875,1.1875 1.15625,1.1875 1.15625,3.1875 l -7.40625,0 z m 0,-0.6875 4.96875,0 q -0.0625,-1.03125 -0.25,-1.45312 -0.29687,-0.65625 -0.875,-1.03125 -0.57812,-0.375 -1.21875,-0.375 -0.96875,0 -1.73437,0.76562 -0.76563,0.75 -0.89063,2.09375 z m 12.02734,-1.39062 q 1.17188,-1.17188 1.39063,-1.34375 0.51562,-0.45313 1.125,-0.6875 0.60937,-0.25 1.21875,-0.25 1,0 1.71875,0.59375 0.73437,0.57812 0.98437,1.6875 1.20313,-1.40625 2.03125,-1.84375 0.84375,-0.4375 1.71875,-0.4375 0.85938,0 1.51563,0.4375 0.65625,0.4375 1.04687,1.4375 0.26563,0.67187 0.26563,2.125 l 0,4.625 q 0,1 0.14062,1.375 0.125,0.26562 0.4375,0.45312 0.3125,0.17188 1.03125,0.17188 l 0,0.42187 -5.29687,0 0,-0.42187 0.21875,0 q 0.70312,0 1.07812,-0.26563 0.28125,-0.1875 0.39063,-0.60937 0.0469,-0.1875 0.0469,-1.125 l 0,-4.625 q 0,-1.3125 -0.3125,-1.84375 -0.45312,-0.75 -1.46875,-0.75 -0.625,0 -1.25,0.3125 -0.625,0.29687 -1.51562,1.14062 l -0.0156,0.14063 0.0156,0.5 0,5.125 q 0,1.09375 0.125,1.375 0.125,0.26562 0.45312,0.45312 0.34375,0.17188 1.17188,0.17188 l 0,0.42187 -5.42188,0 0,-0.42187 q 0.89063,0 1.21875,-0.20313 0.32813,-0.21875 0.46875,-0.64062 0.0469,-0.20313 0.0469,-1.15625 l 0,-4.625 q 0,-1.3125 -0.375,-1.89063 -0.51563,-0.75 -1.45313,-0.75 -0.625,0 -1.25,0.34375 -0.96875,0.51563 -1.5,1.15625 l 0,5.76563 q 0,1.04687 0.14063,1.375 0.15625,0.3125 0.4375,0.46875 0.29687,0.15625 1.17187,0.15625 l 0,0.42187 -5.3125,0 0,-0.42187 q 0.73438,0 1.03125,-0.15625 0.29688,-0.15625 0.4375,-0.5 0.15625,-0.35938 0.15625,-1.34375 l 0,-4.10938 q 0,-1.76562 -0.0937,-2.28125 -0.0937,-0.39062 -0.26562,-0.53125 -0.17188,-0.15625 -0.48438,-0.15625 -0.32812,0 -0.78125,0.1875 l -0.17187,-0.42187 3.23437,-1.3125 0.5,0 0,2.28125 z m 14.69922,-0.90625 3.3125,-1.32813 0.45313,0 0,2.5 q 0.82812,-1.42187 1.65625,-1.98437 0.84375,-0.5625 1.76562,-0.5625 1.625,0 2.70313,1.26562 1.32812,1.54688 1.32812,4.03125 0,2.76563 -1.59375,4.59375 -1.3125,1.48438 -3.3125,1.48438 -0.85937,0 -1.5,-0.25 -0.46875,-0.17188 -1.04687,-0.70313 l 0,3.28125 q 0,1.09375 0.125,1.39063 0.14062,0.29687 0.46875,0.46875 0.34375,0.1875 1.21875,0.1875 l 0,0.4375 -5.625,0 0,-0.4375 0.29687,0 q 0.64063,0.0156 1.09375,-0.25 0.21875,-0.125 0.34375,-0.42188 0.125,-0.28125 0.125,-1.45312 l 0,-10.15625 q 0,-1.03125 -0.0937,-1.3125 -0.0937,-0.28125 -0.29687,-0.42188 -0.20313,-0.14062 -0.5625,-0.14062 -0.28125,0 -0.70313,0.15625 l -0.15625,-0.375 z m 3.76563,1.85937 0,4.01563 q 0,1.29687 0.0937,1.70312 0.17187,0.6875 0.8125,1.20313 0.64062,0.51562 1.60937,0.51562 1.17188,0 1.89063,-0.92187 0.95312,-1.1875 0.95312,-3.35938 0,-2.45312 -1.07812,-3.78125 -0.75,-0.92187 -1.78125,-0.92187 -0.5625,0 -1.10938,0.28125 -0.42187,0.21875 -1.39062,1.26562 z m 12.70312,-3.23437 0,8.625 q 0,1 0.15625,1.34375 0.15625,0.32812 0.4375,0.5 0.29688,0.15625 1.04688,0.15625 l 0,0.42187 -5.20313,0 0,-0.42187 q 0.78125,0 1.04688,-0.15625 0.26562,-0.15625 0.42187,-0.5 0.17188,-0.35938 0.17188,-1.34375 l 0,-4.14063 q 0,-1.75 -0.10938,-2.26562 -0.0781,-0.375 -0.26562,-0.51563 -0.17188,-0.15625 -0.46875,-0.15625 -0.32813,0 -0.79688,0.1875 l -0.17187,-0.42187 3.23437,-1.3125 0.5,0 z m 1.1875,-5.25 -3.45312,4.04687 -0.40625,0 1.23437,-4.04687 2.625,0 z m 4.9336,5.25 0,2.40625 q 1.34375,-2.40625 2.76562,-2.40625 0.64063,0 1.0625,0.39062 0.42188,0.39063 0.42188,0.90625 0,0.45313 -0.3125,0.78125 -0.29688,0.3125 -0.71875,0.3125 -0.40625,0 -0.92188,-0.40625 -0.5,-0.40625 -0.75,-0.40625 -0.20312,0 -0.45312,0.23438 -0.53125,0.48437 -1.09375,1.57812 l 0,5.14063 q 0,0.89062 0.21875,1.35937 0.15625,0.3125 0.54687,0.53125 0.39063,0.20313 1.10938,0.20313 l 0,0.42187 -5.5,0 0,-0.42187 q 0.82812,0 1.21875,-0.26563 0.29687,-0.1875 0.42187,-0.59375 0.0469,-0.20312 0.0469,-1.14062 l 0,-4.15625 q 0,-1.875 -0.0781,-2.23438 -0.0625,-0.35937 -0.28125,-0.51562 -0.20312,-0.17188 -0.5,-0.17188 -0.35937,0 -0.82812,0.1875 l -0.10938,-0.42187 3.25,-1.3125 0.48438,0 z m 7.58593,-5.625 q 0.48438,0 0.82813,0.35937 0.35937,0.34375 0.35937,0.82813 0,0.5 -0.35937,0.85937 -0.34375,0.34375 -0.82813,0.34375 -0.5,0 -0.85937,-0.34375 -0.34375,-0.35937 -0.34375,-0.85937 0,-0.48438 0.34375,-0.82813 0.35937,-0.35937 0.85937,-0.35937 z m 0.96875,5.625 0,8.625 q 0,1 0.14063,1.34375 0.15625,0.32812 0.4375,0.5 0.29687,0.15625 1.04687,0.15625 l 0,0.42187 -5.20312,0 0,-0.42187 q 0.78125,0 1.04687,-0.15625 0.26563,-0.15625 0.42188,-0.5 0.17187,-0.35938 0.17187,-1.34375 l 0,-4.14063 q 0,-1.75 -0.10937,-2.26562 -0.0781,-0.375 -0.26563,-0.51563 -0.17187,-0.15625 -0.46875,-0.15625 -0.32812,0 -0.79687,0.1875 l -0.17188,-0.42187 3.23438,-1.3125 0.51562,0 z m 12.08985,6.96875 q -0.4375,2.125 -1.70313,3.26562 -1.26562,1.14063 -2.79687,1.14063 -1.82813,0 -3.1875,-1.53125 -1.35938,-1.54688 -1.35938,-4.15625 0,-2.53125 1.5,-4.10938 1.5,-1.57812 3.60938,-1.57812 1.59375,0 2.60937,0.84375 1.01563,0.82812 1.01563,1.73437 0,0.4375 -0.29688,0.71875 -0.28125,0.26563 -0.79687,0.26563 -0.6875,0 -1.03125,-0.4375 -0.20313,-0.25 -0.26563,-0.9375 -0.0625,-0.6875 -0.48437,-1.0625 -0.40625,-0.34375 -1.125,-0.34375 -1.17188,0 -1.89063,0.85937 -0.95312,1.15625 -0.95312,3.04688 0,1.92187 0.9375,3.39062 0.95312,1.46875 2.5625,1.46875 1.14062,0 2.0625,-0.78125 0.64062,-0.54687 1.25,-1.96875 l 0.34375,0.17188 z m 7.60547,2.53125 q -1.64063,1.28125 -2.0625,1.46875 -0.64063,0.29687 -1.35938,0.29687 -1.10937,0 -1.82812,-0.75 -0.71875,-0.76562 -0.71875,-2.01562 0,-0.78125 0.34375,-1.35938 0.48437,-0.79687 1.67187,-1.5 1.1875,-0.70312 3.95313,-1.70312 l 0,-0.42188 q 0,-1.60937 -0.51563,-2.20312 -0.5,-0.60938 -1.46875,-0.60938 -0.73437,0 -1.17187,0.40625 -0.45313,0.39063 -0.45313,0.90625 l 0.0312,0.6875 q 0,0.53125 -0.28125,0.82813 -0.26562,0.29687 -0.71875,0.29687 -0.4375,0 -0.71875,-0.29687 -0.26562,-0.3125 -0.26562,-0.84375 0,-1 1.03125,-1.84375 1.03125,-0.84375 2.89062,-0.84375 1.4375,0 2.34375,0.46875 0.70313,0.375 1.03125,1.14062 0.20313,0.5 0.20313,2.0625 l 0,3.64063 q 0,1.54687 0.0625,1.89062 0.0625,0.34375 0.1875,0.46875 0.14062,0.10938 0.3125,0.10938 0.1875,0 0.32812,-0.0781 0.25,-0.15625 0.95313,-0.85937 l 0,0.65625 q -1.3125,1.76562 -2.51563,1.76562 -0.5625,0 -0.90625,-0.40625 -0.34375,-0.40625 -0.35937,-1.35937 z m 0,-0.76563 0,-4.09375 q -1.76563,0.70313 -2.28125,1 -0.92188,0.51563 -1.32813,1.07813 -0.39062,0.5625 -0.39062,1.23437 0,0.84375 0.5,1.40625 0.5,0.54688 1.15625,0.54688 0.89062,0 2.34375,-1.17188 z"
       id="path65"
       inkscape:connector-curvature="0"
       style="fill:#666666;fill-rule:nonzero" />
    <path
       d="m 730.06824,396.17322 185.98425,0 0,45.16537 -185.98425,0 z"
       id="path67"
       inkscape:connector-curvature="0"
       style="fill:#000000;fill-opacity:0;fill-rule:evenodd" />
    <path
       d="m 730.06824,396.17322 185.98425,0 0,45.16537 -185.98425,0 z"
       id="path69"
       inkscape:connector-curvature="0"
       style="fill-rule:evenodd;stroke:#999999;stroke-width:1;stroke-linecap:butt;stroke-linejoin:round" />
    <path
       d="m 755.64435,420.6084 q -0.0156,2.39063 1.15625,3.75 1.17188,1.35938 2.75,1.35938 1.0625,0 1.82813,-0.57813 0.78125,-0.59375 1.3125,-2 l 0.35937,0.23438 q -0.23437,1.60937 -1.42187,2.9375 -1.1875,1.3125 -2.96875,1.3125 -1.9375,0 -3.3125,-1.5 -1.375,-1.51563 -1.375,-4.0625 0,-2.75 1.40625,-4.28125 1.42187,-1.54688 3.54687,-1.54688 1.8125,0 2.96875,1.1875 1.15625,1.1875 1.15625,3.1875 l -7.40625,0 z m 0,-0.6875 4.96875,0 q -0.0625,-1.03125 -0.25,-1.45312 -0.29687,-0.65625 -0.875,-1.03125 -0.57812,-0.375 -1.21875,-0.375 -0.96875,0 -1.73437,0.76562 -0.76563,0.75 -0.89063,2.09375 z m 15.77734,-3.67187 0,3.65625 -0.39062,0 q -0.4375,-1.73438 -1.14063,-2.34375 -0.6875,-0.625 -1.76562,-0.625 -0.82813,0 -1.32813,0.4375 -0.5,0.42187 -0.5,0.95312 0,0.65625 0.375,1.125 0.35938,0.48438 1.46875,1.01563 l 1.71875,0.84375 q 2.375,1.15625 2.375,3.04687 0,1.46875 -1.10937,2.375 -1.10938,0.89063 -2.48438,0.89063 -0.98437,0 -2.25,-0.35938 -0.375,-0.10937 -0.625,-0.10937 -0.26562,0 -0.42187,0.3125 l -0.39063,0 0,-3.84375 0.39063,0 q 0.32812,1.64062 1.25,2.48437 0.92187,0.82813 2.07812,0.82813 0.8125,0 1.3125,-0.46875 0.51563,-0.48438 0.51563,-1.15625 0,-0.8125 -0.57813,-1.35938 -0.5625,-0.54687 -2.26562,-1.39062 -1.6875,-0.84375 -2.21875,-1.53125 -0.53125,-0.65625 -0.53125,-1.6875 0,-1.3125 0.90625,-2.20313 0.90625,-0.89062 2.35937,-0.89062 0.625,0 1.53125,0.26562 0.59375,0.17188 0.79688,0.17188 0.1875,0 0.28125,-0.0781 0.10937,-0.0781 0.25,-0.35937 l 0.39062,0 z m 5.52735,-3.21875 0,3.53125 2.5,0 0,0.8125 -2.5,0 0,6.96875 q 0,1.04687 0.29687,1.40625 0.29688,0.35937 0.76563,0.35937 0.39062,0 0.75,-0.23437 0.35937,-0.25 0.5625,-0.71875 l 0.45312,0 q -0.40625,1.15625 -1.15625,1.73437 -0.75,0.57813 -1.54687,0.57813 -0.54688,0 -1.0625,-0.29688 -0.51563,-0.29687 -0.76563,-0.84375 -0.23437,-0.5625 -0.23437,-1.73437 l 0,-7.21875 -1.70313,0 0,-0.375 q 0.64063,-0.26563 1.3125,-0.875 0.6875,-0.625 1.20313,-1.46875 0.28125,-0.4375 0.75,-1.625 l 0.375,0 z m 12.94922,3.53125 0,6.5 q 0,1.85937 0.0937,2.28125 0.0937,0.42187 0.28125,0.59375 0.1875,0.15625 0.45312,0.15625 0.35938,0 0.8125,-0.20313 l 0.17188,0.40625 -3.21875,1.32813 -0.51563,0 0,-2.28125 q -1.39062,1.5 -2.125,1.89062 -0.71875,0.39063 -1.53125,0.39063 -0.89062,0 -1.5625,-0.51563 -0.65625,-0.53125 -0.92187,-1.34375 -0.25,-0.82812 -0.25,-2.32812 l 0,-4.79688 q 0,-0.75 -0.17188,-1.04687 -0.15625,-0.29688 -0.48437,-0.45313 -0.3125,-0.15625 -1.15625,-0.14062 l 0,-0.4375 3.75,0 0,7.1875 q 0,1.5 0.51562,1.96875 0.53125,0.46875 1.26563,0.46875 0.51562,0 1.14062,-0.3125 0.64063,-0.32813 1.53125,-1.21875 l 0,-6.07813 q 0,-0.92187 -0.34375,-1.23437 -0.32812,-0.32813 -1.39062,-0.34375 l 0,-0.4375 3.65625,0 z m 10.17187,9.53125 q -0.78125,0.8125 -1.53125,1.17187 -0.75,0.35938 -1.60937,0.35938 -1.76563,0 -3.07813,-1.46875 -1.3125,-1.46875 -1.3125,-3.78125 0,-2.3125 1.45313,-4.21875 1.45312,-1.92188 3.73437,-1.92188 1.42188,0 2.34375,0.90625 l 0,-1.98437 q 0,-1.84375 -0.0937,-2.26563 -0.0781,-0.42187 -0.26562,-0.5625 -0.1875,-0.15625 -0.46875,-0.15625 -0.29688,0 -0.8125,0.1875 l -0.14063,-0.42187 3.1875,-1.3125 0.53125,0 0,12.42187 q 0,1.875 0.0781,2.29688 0.0937,0.42187 0.28125,0.59375 0.20312,0.15625 0.46875,0.15625 0.3125,0 0.84375,-0.20313 l 0.125,0.40625 -3.1875,1.32813 -0.54688,0 0,-1.53125 z m 0,-0.82813 0,-5.53125 q -0.0625,-0.79687 -0.42187,-1.45312 -0.34375,-0.65625 -0.92188,-0.98438 -0.57812,-0.34375 -1.14062,-0.34375 -1.03125,0 -1.82813,0.9375 -1.07812,1.21875 -1.07812,3.5625 0,2.35938 1.03125,3.625 1.03125,1.25 2.29687,1.25 1.07813,0 2.0625,-1.0625 z m 9.67188,-9.01562 q 2.4375,0 3.92187,1.84375 1.25,1.57812 1.25,3.64062 0,1.4375 -0.70312,2.92188 -0.6875,1.46875 -1.90625,2.21875 -1.20313,0.75 -2.6875,0.75 -2.42188,0 -3.85938,-1.9375 -1.20312,-1.625 -1.20312,-3.65625 0,-1.46875 0.73437,-2.92188 0.73438,-1.46875 1.92188,-2.15625 1.20312,-0.70312 2.53125,-0.70312 z m -0.35938,0.75 q -0.625,0 -1.25,0.375 -0.625,0.375 -1.01562,1.29687 -0.39063,0.92188 -0.39063,2.375 0,2.34375 0.9375,4.04688 0.9375,1.70312 2.45313,1.70312 1.14062,0 1.875,-0.9375 0.73437,-0.9375 0.73437,-3.23437 0,-2.85938 -1.21875,-4.5 -0.84375,-1.125 -2.125,-1.125 z m 20.6875,9.09375 q -0.78125,0.8125 -1.53125,1.17187 -0.75,0.35938 -1.60937,0.35938 -1.76563,0 -3.07813,-1.46875 -1.3125,-1.46875 -1.3125,-3.78125 0,-2.3125 1.45313,-4.21875 1.45312,-1.92188 3.73437,-1.92188 1.42188,0 2.34375,0.90625 l 0,-1.98437 q 0,-1.84375 -0.0937,-2.26563 -0.0781,-0.42187 -0.26562,-0.5625 -0.1875,-0.15625 -0.46875,-0.15625 -0.29688,0 -0.8125,0.1875 l -0.14063,-0.42187 3.1875,-1.3125 0.53125,0 0,12.42187 q 0,1.875 0.0781,2.29688 0.0937,0.42187 0.28125,0.59375 0.20312,0.15625 0.46875,0.15625 0.3125,0 0.84375,-0.20313 l 0.125,0.40625 -3.1875,1.32813 -0.54688,0 0,-1.53125 z m 0,-0.82813 0,-5.53125 q -0.0625,-0.79687 -0.42187,-1.45312 -0.34375,-0.65625 -0.92188,-0.98438 -0.57812,-0.34375 -1.14062,-0.34375 -1.03125,0 -1.82813,0.9375 -1.07812,1.21875 -1.07812,3.5625 0,2.35938 1.03125,3.625 1.03125,1.25 2.29687,1.25 1.07813,0 2.0625,-1.0625 z m 6.23438,-4.65625 q -0.0156,2.39063 1.15625,3.75 1.17187,1.35938 2.75,1.35938 1.0625,0 1.82812,-0.57813 0.78125,-0.59375 1.3125,-2 l 0.35938,0.23438 q -0.23438,1.60937 -1.42188,2.9375 -1.1875,1.3125 -2.96875,1.3125 -1.9375,0 -3.3125,-1.5 -1.375,-1.51563 -1.375,-4.0625 0,-2.75 1.40625,-4.28125 1.42188,-1.54688 3.54688,-1.54688 1.8125,0 2.96875,1.1875 1.15625,1.1875 1.15625,3.1875 l -7.40625,0 z m 0,-0.6875 4.96875,0 q -0.0625,-1.03125 -0.25,-1.45312 -0.29688,-0.65625 -0.875,-1.03125 -0.57813,-0.375 -1.21875,-0.375 -0.96875,0 -1.73438,0.76562 -0.76562,0.75 -0.89062,2.09375 z m 23.96484,3.29688 q -0.4375,2.125 -1.70312,3.26562 -1.26563,1.14063 -2.79688,1.14063 -1.82812,0 -3.1875,-1.53125 -1.35937,-1.54688 -1.35937,-4.15625 0,-2.53125 1.5,-4.10938 1.5,-1.57812 3.60937,-1.57812 1.59375,0 2.60938,0.84375 1.01562,0.82812 1.01562,1.73437 0,0.4375 -0.29687,0.71875 -0.28125,0.26563 -0.79688,0.26563 -0.6875,0 -1.03125,-0.4375 -0.20312,-0.25 -0.26562,-0.9375 -0.0625,-0.6875 -0.48438,-1.0625 -0.40625,-0.34375 -1.125,-0.34375 -1.17187,0 -1.89062,0.85937 -0.95313,1.15625 -0.95313,3.04688 0,1.92187 0.9375,3.39062 0.95313,1.46875 2.5625,1.46875 1.14063,0 2.0625,-0.78125 0.64063,-0.54687 1.25,-1.96875 l 0.34375,0.17188 z m 7.60547,2.53125 q -1.64063,1.28125 -2.0625,1.46875 -0.64063,0.29687 -1.35938,0.29687 -1.10937,0 -1.82812,-0.75 -0.71875,-0.76562 -0.71875,-2.01562 0,-0.78125 0.34375,-1.35938 0.48437,-0.79687 1.67187,-1.5 1.1875,-0.70312 3.95313,-1.70312 l 0,-0.42188 q 0,-1.60937 -0.51563,-2.20312 -0.5,-0.60938 -1.46875,-0.60938 -0.73437,0 -1.17187,0.40625 -0.45313,0.39063 -0.45313,0.90625 l 0.0312,0.6875 q 0,0.53125 -0.28125,0.82813 -0.26562,0.29687 -0.71875,0.29687 -0.4375,0 -0.71875,-0.29687 -0.26562,-0.3125 -0.26562,-0.84375 0,-1 1.03125,-1.84375 1.03125,-0.84375 2.89062,-0.84375 1.4375,0 2.34375,0.46875 0.70313,0.375 1.03125,1.14062 0.20313,0.5 0.20313,2.0625 l 0,3.64063 q 0,1.54687 0.0625,1.89062 0.0625,0.34375 0.1875,0.46875 0.14062,0.10938 0.3125,0.10938 0.1875,0 0.32812,-0.0781 0.25,-0.15625 0.95313,-0.85937 l 0,0.65625 q -1.3125,1.76562 -2.51563,1.76562 -0.5625,0 -0.90625,-0.40625 -0.34375,-0.40625 -0.35937,-1.35937 z m 0,-0.76563 0,-4.09375 q -1.76563,0.70313 -2.28125,1 -0.92188,0.51563 -1.32813,1.07813 -0.39062,0.5625 -0.39062,1.23437 0,0.84375 0.5,1.40625 0.5,0.54688 1.15625,0.54688 0.89062,0 2.34375,-1.17188 z m 11.51172,-8.73437 0,3.65625 -0.39063,0 q -0.4375,-1.73438 -1.14062,-2.34375 -0.6875,-0.625 -1.76563,-0.625 -0.82812,0 -1.32812,0.4375 -0.5,0.42187 -0.5,0.95312 0,0.65625 0.375,1.125 0.35937,0.48438 1.46875,1.01563 l 1.71875,0.84375 q 2.375,1.15625 2.375,3.04687 0,1.46875 -1.10938,2.375 -1.10937,0.89063 -2.48437,0.89063 -0.98438,0 -2.25,-0.35938 -0.375,-0.10937 -0.625,-0.10937 -0.26563,0 -0.42188,0.3125 l -0.39062,0 0,-3.84375 0.39062,0 q 0.32813,1.64062 1.25,2.48437 0.92188,0.82813 2.07813,0.82813 0.8125,0 1.3125,-0.46875 0.51562,-0.48438 0.51562,-1.15625 0,-0.8125 -0.57812,-1.35938 -0.5625,-0.54687 -2.26563,-1.39062 -1.6875,-0.84375 -2.21875,-1.53125 -0.53125,-0.65625 -0.53125,-1.6875 0,-1.3125 0.90625,-2.20313 0.90625,-0.89062 2.35938,-0.89062 0.625,0 1.53125,0.26562 0.59375,0.17188 0.79687,0.17188 0.1875,0 0.28125,-0.0781 0.10938,-0.0781 0.25,-0.35937 l 0.39063,0 z m 7.65234,0 q 2.4375,0 3.92188,1.84375 1.25,1.57812 1.25,3.64062 0,1.4375 -0.70313,2.92188 -0.6875,1.46875 -1.90625,2.21875 -1.20312,0.75 -2.6875,0.75 -2.42187,0 -3.85937,-1.9375 -1.20313,-1.625 -1.20313,-3.65625 0,-1.46875 0.73438,-2.92188 0.73437,-1.46875 1.92187,-2.15625 1.20313,-0.70312 2.53125,-0.70312 z m -0.35937,0.75 q -0.625,0 -1.25,0.375 -0.625,0.375 -1.01563,1.29687 -0.39062,0.92188 -0.39062,2.375 0,2.34375 0.9375,4.04688 0.9375,1.70312 2.45312,1.70312 1.14063,0 1.875,-0.9375 0.73438,-0.9375 0.73438,-3.23437 0,-2.85938 -1.21875,-4.5 -0.84375,-1.125 -2.125,-1.125 z"
       id="path71"
       inkscape:connector-curvature="0"
       style="fill:#666666;fill-rule:nonzero" />
    <path
       d="m 374.1496,396.17322 185.98425,0 0,45.16537 -185.98425,0 z"
       id="path73"
       inkscape:connector-curvature="0"
       style="fill:#000000;fill-opacity:0;fill-rule:evenodd" />
    <path
       d="m 374.1496,396.17322 185.98425,0 0,45.16537 -185.98425,0 z"
       id="path75"
       inkscape:connector-curvature="0"
       style="fill-rule:evenodd;stroke:#999999;stroke-width:1;stroke-linecap:butt;stroke-linejoin:round" />
    <path
       d="m 426.7433,416.24902 0,13.79687 q 0,1.03125 0.14062,1.32813 0.14063,0.29687 0.4375,0.45312 0.3125,0.17188 1.17188,0.17188 l 0,0.4375 -5.40625,0 0,-0.4375 0.21875,0 q 0.65625,0 1,-0.1875 0.23437,-0.125 0.375,-0.46875 0.14062,-0.32813 0.14062,-1.29688 l 0,-4.60937 q -1.07812,1.26562 -1.875,1.73437 -0.79687,0.45313 -1.64062,0.45313 -1.5625,0 -2.79688,-1.42188 -1.21875,-1.42187 -1.21875,-3.79687 0,-2.73438 1.60938,-4.4375 1.625,-1.71875 3.90625,-1.71875 0.67187,0 1.23437,0.1875 0.5625,0.1875 1.01563,0.5625 0.67187,-0.32813 1.29687,-0.75 l 0.39063,0 z m -1.92188,8.4375 0,-5.03125 q 0,-0.875 -0.23437,-1.375 -0.23438,-0.51563 -0.82813,-0.85938 -0.57812,-0.35937 -1.3125,-0.35937 -1.3125,0 -2.25,1.125 -0.9375,1.10937 -0.9375,3.35937 0,2.17188 0.95313,3.29688 0.95312,1.125 2.3125,1.125 0.6875,0 1.21875,-0.29688 0.54687,-0.29687 1.07812,-0.98437 z m 13.82813,-8.125 0,6.5 q 0,1.85937 0.0937,2.28125 0.0937,0.42187 0.28125,0.59375 0.1875,0.15625 0.45312,0.15625 0.35938,0 0.8125,-0.20313 l 0.17188,0.40625 -3.21875,1.32813 -0.51563,0 0,-2.28125 q -1.39062,1.5 -2.125,1.89062 -0.71875,0.39063 -1.53125,0.39063 -0.89062,0 -1.5625,-0.51563 -0.65625,-0.53125 -0.92187,-1.34375 -0.25,-0.82812 -0.25,-2.32812 l 0,-4.79688 q 0,-0.75 -0.17188,-1.04687 -0.15625,-0.29688 -0.48437,-0.45313 -0.3125,-0.15625 -1.15625,-0.14062 l 0,-0.4375 3.75,0 0,7.1875 q 0,1.5 0.51562,1.96875 0.53125,0.46875 1.26563,0.46875 0.51562,0 1.14062,-0.3125 0.64063,-0.32813 1.53125,-1.21875 l 0,-6.07813 q 0,-0.92187 -0.34375,-1.23437 -0.32812,-0.32813 -1.39062,-0.34375 l 0,-0.4375 3.65625,0 z m 8.67187,9.1875 q -1.64062,1.28125 -2.0625,1.46875 -0.64062,0.29687 -1.35937,0.29687 -1.10938,0 -1.82813,-0.75 -0.71875,-0.76562 -0.71875,-2.01562 0,-0.78125 0.34375,-1.35938 0.48438,-0.79687 1.67188,-1.5 1.1875,-0.70312 3.95312,-1.70312 l 0,-0.42188 q 0,-1.60937 -0.51562,-2.20312 -0.5,-0.60938 -1.46875,-0.60938 -0.73438,0 -1.17188,0.40625 -0.45312,0.39063 -0.45312,0.90625 l 0.0312,0.6875 q 0,0.53125 -0.28125,0.82813 -0.26563,0.29687 -0.71875,0.29687 -0.4375,0 -0.71875,-0.29687 -0.26563,-0.3125 -0.26563,-0.84375 0,-1 1.03125,-1.84375 1.03125,-0.84375 2.89063,-0.84375 1.4375,0 2.34375,0.46875 0.70312,0.375 1.03125,1.14062 0.20312,0.5 0.20312,2.0625 l 0,3.64063 q 0,1.54687 0.0625,1.89062 0.0625,0.34375 0.1875,0.46875 0.14063,0.10938 0.3125,0.10938 0.1875,0 0.32813,-0.0781 0.25,-0.15625 0.95312,-0.85937 l 0,0.65625 q -1.3125,1.76562 -2.51562,1.76562 -0.5625,0 -0.90625,-0.40625 -0.34375,-0.40625 -0.35938,-1.35937 z m 0,-0.76563 0,-4.09375 q -1.76562,0.70313 -2.28125,1 -0.92187,0.51563 -1.32812,1.07813 -0.39063,0.5625 -0.39063,1.23437 0,0.84375 0.5,1.40625 0.5,0.54688 1.15625,0.54688 0.89063,0 2.34375,-1.17188 z m 8.26172,-14.35937 0,14.25 q 0,1 0.14063,1.32812 0.15625,0.32813 0.45312,0.5 0.3125,0.17188 1.14063,0.17188 l 0,0.42187 -5.25,0 0,-0.42187 q 0.73437,0 1,-0.15625 0.26562,-0.15625 0.42187,-0.5 0.15625,-0.35938 0.15625,-1.34375 l 0,-9.75 q 0,-1.82813 -0.0937,-2.23438 -0.0781,-0.42187 -0.26562,-0.5625 -0.17188,-0.15625 -0.45313,-0.15625 -0.29687,0 -0.76562,0.1875 l -0.20313,-0.42187 3.20313,-1.3125 0.51562,0 z m 5.71485,0 q 0.48437,0 0.82812,0.35937 0.35938,0.34375 0.35938,0.82813 0,0.5 -0.35938,0.85937 -0.34375,0.34375 -0.82812,0.34375 -0.5,0 -0.85938,-0.34375 -0.34375,-0.35937 -0.34375,-0.85937 0,-0.48438 0.34375,-0.82813 0.35938,-0.35937 0.85938,-0.35937 z m 0.96875,5.625 0,8.625 q 0,1 0.14062,1.34375 0.15625,0.32812 0.4375,0.5 0.29688,0.15625 1.04688,0.15625 l 0,0.42187 -5.20313,0 0,-0.42187 q 0.78125,0 1.04688,-0.15625 0.26562,-0.15625 0.42187,-0.5 0.17188,-0.35938 0.17188,-1.34375 l 0,-4.14063 q 0,-1.75 -0.10938,-2.26562 -0.0781,-0.375 -0.26562,-0.51563 -0.17188,-0.15625 -0.46875,-0.15625 -0.32813,0 -0.79688,0.1875 l -0.17187,-0.42187 3.23437,-1.3125 0.51563,0 z m 6.08984,-3.21875 0,3.53125 2.5,0 0,0.8125 -2.5,0 0,6.96875 q 0,1.04687 0.29688,1.40625 0.29687,0.35937 0.76562,0.35937 0.39063,0 0.75,-0.23437 0.35938,-0.25 0.5625,-0.71875 l 0.45313,0 q -0.40625,1.15625 -1.15625,1.73437 -0.75,0.57813 -1.54688,0.57813 -0.54687,0 -1.0625,-0.29688 -0.51562,-0.29687 -0.76562,-0.84375 -0.23438,-0.5625 -0.23438,-1.73437 l 0,-7.21875 -1.70312,0 0,-0.375 q 0.64062,-0.26563 1.3125,-0.875 0.6875,-0.625 1.20312,-1.46875 0.28125,-0.4375 0.75,-1.625 l 0.375,0 z m 9.6211,12.71875 q -1.64063,1.28125 -2.0625,1.46875 -0.64063,0.29687 -1.35938,0.29687 -1.10937,0 -1.82812,-0.75 -0.71875,-0.76562 -0.71875,-2.01562 0,-0.78125 0.34375,-1.35938 0.48437,-0.79687 1.67187,-1.5 1.1875,-0.70312 3.95313,-1.70312 l 0,-0.42188 q 0,-1.60937 -0.51563,-2.20312 -0.5,-0.60938 -1.46875,-0.60938 -0.73437,0 -1.17187,0.40625 -0.45313,0.39063 -0.45313,0.90625 l 0.0312,0.6875 q 0,0.53125 -0.28125,0.82813 -0.26562,0.29687 -0.71875,0.29687 -0.4375,0 -0.71875,-0.29687 -0.26562,-0.3125 -0.26562,-0.84375 0,-1 1.03125,-1.84375 1.03125,-0.84375 2.89062,-0.84375 1.4375,0 2.34375,0.46875 0.70313,0.375 1.03125,1.14062 0.20313,0.5 0.20313,2.0625 l 0,3.64063 q 0,1.54687 0.0625,1.89062 0.0625,0.34375 0.1875,0.46875 0.14062,0.10938 0.3125,0.10938 0.1875,0 0.32812,-0.0781 0.25,-0.15625 0.95313,-0.85937 l 0,0.65625 q -1.3125,1.76562 -2.51563,1.76562 -0.5625,0 -0.90625,-0.40625 -0.34375,-0.40625 -0.35937,-1.35937 z m 0,-0.76563 0,-4.09375 q -1.76563,0.70313 -2.28125,1 -0.92188,0.51563 -1.32813,1.07813 -0.39062,0.5625 -0.39062,1.23437 0,0.84375 0.5,1.40625 0.5,0.54688 1.15625,0.54688 0.89062,0 2.34375,-1.17188 z m 7.69921,-11.95312 0,3.53125 2.5,0 0,0.8125 -2.5,0 0,6.96875 q 0,1.04687 0.29688,1.40625 0.29687,0.35937 0.76562,0.35937 0.39063,0 0.75,-0.23437 0.35938,-0.25 0.5625,-0.71875 l 0.45313,0 q -0.40625,1.15625 -1.15625,1.73437 -0.75,0.57813 -1.54688,0.57813 -0.54687,0 -1.0625,-0.29688 -0.51562,-0.29687 -0.76562,-0.84375 -0.23438,-0.5625 -0.23438,-1.73437 l 0,-7.21875 -1.70312,0 0,-0.375 q 0.64062,-0.26563 1.3125,-0.875 0.6875,-0.625 1.20312,-1.46875 0.28125,-0.4375 0.75,-1.625 l 0.375,0 z m 6.27735,-2.40625 q 0.48437,0 0.82812,0.35937 0.35938,0.34375 0.35938,0.82813 0,0.5 -0.35938,0.85937 -0.34375,0.34375 -0.82812,0.34375 -0.5,0 -0.85938,-0.34375 -0.34375,-0.35937 -0.34375,-0.85937 0,-0.48438 0.34375,-0.82813 0.35938,-0.35937 0.85938,-0.35937 z m 0.96875,5.625 0,8.625 q 0,1 0.14062,1.34375 0.15625,0.32812 0.4375,0.5 0.29688,0.15625 1.04688,0.15625 l 0,0.42187 -5.20313,0 0,-0.42187 q 0.78125,0 1.04688,-0.15625 0.26562,-0.15625 0.42187,-0.5 0.17188,-0.35938 0.17188,-1.34375 l 0,-4.14063 q 0,-1.75 -0.10938,-2.26562 -0.0781,-0.375 -0.26562,-0.51563 -0.17188,-0.15625 -0.46875,-0.15625 -0.32813,0 -0.79688,0.1875 l -0.17187,-0.42187 3.23437,-1.3125 0.51563,0 z m 2.41797,0.3125 5.04687,0 0,0.4375 -0.32812,0 q -0.45313,0 -0.70313,0.21875 -0.23437,0.21875 -0.23437,0.59375 0,0.40625 0.25,0.96875 l 2.5,5.9375 2.5,-6.15625 q 0.26562,-0.65625 0.26562,-1 0,-0.15625 -0.0937,-0.26563 -0.125,-0.17187 -0.32812,-0.23437 -0.1875,-0.0625 -0.79688,-0.0625 l 0,-0.4375 3.5,0 0,0.4375 q -0.60937,0.0469 -0.84375,0.23437 -0.40625,0.35938 -0.73437,1.17188 l -3.8125,9.21875 -0.48438,0 -3.82812,-9.0625 q -0.26563,-0.625 -0.5,-0.90625 -0.23438,-0.28125 -0.59375,-0.46875 -0.20313,-0.0937 -0.78125,-0.1875 l 0,-0.4375 z m 18.625,9.1875 q -1.64063,1.28125 -2.0625,1.46875 -0.64063,0.29687 -1.35938,0.29687 -1.10937,0 -1.82812,-0.75 -0.71875,-0.76562 -0.71875,-2.01562 0,-0.78125 0.34375,-1.35938 0.48437,-0.79687 1.67187,-1.5 1.1875,-0.70312 3.95313,-1.70312 l 0,-0.42188 q 0,-1.60937 -0.51563,-2.20312 -0.5,-0.60938 -1.46875,-0.60938 -0.73437,0 -1.17187,0.40625 -0.45313,0.39063 -0.45313,0.90625 l 0.0312,0.6875 q 0,0.53125 -0.28125,0.82813 -0.26562,0.29687 -0.71875,0.29687 -0.4375,0 -0.71875,-0.29687 -0.26562,-0.3125 -0.26562,-0.84375 0,-1 1.03125,-1.84375 1.03125,-0.84375 2.89062,-0.84375 1.4375,0 2.34375,0.46875 0.70313,0.375 1.03125,1.14062 0.20313,0.5 0.20313,2.0625 l 0,3.64063 q 0,1.54687 0.0625,1.89062 0.0625,0.34375 0.1875,0.46875 0.14062,0.10938 0.3125,0.10938 0.1875,0 0.32812,-0.0781 0.25,-0.15625 0.95313,-0.85937 l 0,0.65625 q -1.3125,1.76562 -2.51563,1.76562 -0.5625,0 -0.90625,-0.40625 -0.34375,-0.40625 -0.35937,-1.35937 z m 0,-0.76563 0,-4.09375 q -1.76563,0.70313 -2.28125,1 -0.92188,0.51563 -1.32813,1.07813 -0.39062,0.5625 -0.39062,1.23437 0,0.84375 0.5,1.40625 0.5,0.54688 1.15625,0.54688 0.89062,0 2.34375,-1.17188 z"
       id="path77"
       inkscape:connector-curvature="0"
       style="fill:#666666;fill-rule:nonzero" />
    <path
       d="m 60.32546,396.17322 185.98425,0 0,45.16537 -185.98425,0 z"
       id="path79"
       inkscape:connector-curvature="0"
       style="fill:#000000;fill-opacity:0;fill-rule:evenodd" />
    <path
       d="m 60.32546,396.17322 185.98425,0 0,45.16537 -185.98425,0 z"
       id="path81"
       inkscape:connector-curvature="0"
       style="fill-rule:evenodd;stroke:#999999;stroke-width:1;stroke-linecap:butt;stroke-linejoin:round" />
    <path
       d="m 106.91915,416.24902 0,13.79687 q 0,1.03125 0.14063,1.32813 0.14062,0.29687 0.4375,0.45312 0.3125,0.17188 1.17187,0.17188 l 0,0.4375 -5.40625,0 0,-0.4375 0.21875,0 q 0.65625,0 1,-0.1875 0.23438,-0.125 0.375,-0.46875 0.14063,-0.32813 0.14063,-1.29688 l 0,-4.60937 q -1.07813,1.26562 -1.875,1.73437 -0.79688,0.45313 -1.64063,0.45313 -1.5625,0 -2.796875,-1.42188 -1.21875,-1.42187 -1.21875,-3.79687 0,-2.73438 1.609375,-4.4375 1.625,-1.71875 3.90625,-1.71875 0.67188,0 1.23438,0.1875 0.5625,0.1875 1.01562,0.5625 0.67188,-0.32813 1.29688,-0.75 l 0.39062,0 z m -1.92187,8.4375 0,-5.03125 q 0,-0.875 -0.23438,-1.375 -0.23437,-0.51563 -0.82812,-0.85938 -0.57813,-0.35937 -1.3125,-0.35937 -1.3125,0 -2.25,1.125 -0.937505,1.10937 -0.937505,3.35937 0,2.17188 0.953125,3.29688 0.95313,1.125 2.3125,1.125 0.6875,0 1.21875,-0.29688 0.54688,-0.29687 1.07813,-0.98437 z m 13.82812,-8.125 0,6.5 q 0,1.85937 0.0937,2.28125 0.0937,0.42187 0.28125,0.59375 0.1875,0.15625 0.45313,0.15625 0.35937,0 0.8125,-0.20313 l 0.17187,0.40625 -3.21875,1.32813 -0.51562,0 0,-2.28125 q -1.39063,1.5 -2.125,1.89062 -0.71875,0.39063 -1.53125,0.39063 -0.89063,0 -1.5625,-0.51563 -0.65625,-0.53125 -0.92188,-1.34375 -0.25,-0.82812 -0.25,-2.32812 l 0,-4.79688 q 0,-0.75 -0.17187,-1.04687 -0.15625,-0.29688 -0.48438,-0.45313 -0.3125,-0.15625 -1.15625,-0.14062 l 0,-0.4375 3.75,0 0,7.1875 q 0,1.5 0.51563,1.96875 0.53125,0.46875 1.26562,0.46875 0.51563,0 1.14063,-0.3125 0.64062,-0.32813 1.53125,-1.21875 l 0,-6.07813 q 0,-0.92187 -0.34375,-1.23437 -0.32813,-0.32813 -1.39063,-0.34375 l 0,-0.4375 3.65625,0 z m 8.67188,9.1875 q -1.64063,1.28125 -2.0625,1.46875 -0.64063,0.29687 -1.35938,0.29687 -1.10937,0 -1.82812,-0.75 -0.71875,-0.76562 -0.71875,-2.01562 0,-0.78125 0.34375,-1.35938 0.48437,-0.79687 1.67187,-1.5 1.1875,-0.70312 3.95313,-1.70312 l 0,-0.42188 q 0,-1.60937 -0.51563,-2.20312 -0.5,-0.60938 -1.46875,-0.60938 -0.73437,0 -1.17187,0.40625 -0.45313,0.39063 -0.45313,0.90625 l 0.0312,0.6875 q 0,0.53125 -0.28125,0.82813 -0.26562,0.29687 -0.71875,0.29687 -0.4375,0 -0.71875,-0.29687 -0.26562,-0.3125 -0.26562,-0.84375 0,-1 1.03125,-1.84375 1.03125,-0.84375 2.89062,-0.84375 1.4375,0 2.34374,0.46875 0.70313,0.375 1.03125,1.14062 0.20313,0.5 0.20313,2.0625 l 0,3.64063 q 0,1.54687 0.0625,1.89062 0.0625,0.34375 0.1875,0.46875 0.14062,0.10938 0.3125,0.10938 0.1875,0 0.32812,-0.0781 0.25,-0.15625 0.95313,-0.85937 l 0,0.65625 q -1.3125,1.76562 -2.51563,1.76562 -0.5625,0 -0.90624,-0.40625 -0.34375,-0.40625 -0.35937,-1.35937 z m 0,-0.76563 0,-4.09375 q -1.76563,0.70313 -2.28125,1 -0.92188,0.51563 -1.32813,1.07813 -0.39062,0.5625 -0.39062,1.23437 0,0.84375 0.5,1.40625 0.5,0.54688 1.15625,0.54688 0.89062,0 2.34375,-1.17188 z m 7.69921,-6.46875 q 1.89062,-2.26562 3.60937,-2.26562 0.875,0 1.5,0.4375 0.64063,0.4375 1.01563,1.4375 0.25,0.70312 0.25,2.15625 l 0,4.59375 q 0,1.01562 0.17187,1.375 0.125,0.29687 0.40625,0.46875 0.29688,0.15625 1.0625,0.15625 l 0,0.42187 -5.29687,0 0,-0.42187 0.21875,0 q 0.75,0 1.04687,-0.21875 0.29688,-0.23438 0.42188,-0.6875 0.0469,-0.17188 0.0469,-1.09375 l 0,-4.40625 q 0,-1.45313 -0.39062,-2.10938 -0.375,-0.67187 -1.28125,-0.67187 -1.39063,0 -2.78125,1.51562 l 0,5.67188 q 0,1.07812 0.14062,1.34375 0.15625,0.34375 0.4375,0.5 0.29688,0.15625 1.17188,0.15625 l 0,0.42187 -5.3125,0 0,-0.42187 0.23437,0 q 0.82813,0 1.10938,-0.40625 0.29687,-0.42188 0.29687,-1.59375 l 0,-3.98438 q 0,-1.9375 -0.0937,-2.35937 -0.0937,-0.42188 -0.28125,-0.57813 -0.17187,-0.15625 -0.46875,-0.15625 -0.32812,0 -0.79687,0.1875 l -0.17188,-0.42187 3.23438,-1.3125 0.5,0 0,2.26562 z m 12,-5.48437 0,3.53125 2.5,0 0,0.8125 -2.5,0 0,6.96875 q 0,1.04687 0.29687,1.40625 0.29688,0.35937 0.76563,0.35937 0.39062,0 0.75,-0.23437 0.35937,-0.25 0.5625,-0.71875 l 0.45312,0 q -0.40625,1.15625 -1.15625,1.73437 -0.75,0.57813 -1.54687,0.57813 -0.54688,0 -1.0625,-0.29688 -0.51563,-0.29687 -0.76563,-0.84375 -0.23437,-0.5625 -0.23437,-1.73437 l 0,-7.21875 -1.70313,0 0,-0.375 q 0.64063,-0.26563 1.3125,-0.875 0.6875,-0.625 1.20313,-1.46875 0.28125,-0.4375 0.75,-1.625 l 0.375,0 z m 6.27734,-2.40625 q 0.48437,0 0.82812,0.35937 0.35938,0.34375 0.35938,0.82813 0,0.5 -0.35938,0.85937 -0.34375,0.34375 -0.82812,0.34375 -0.5,0 -0.85938,-0.34375 -0.34375,-0.35937 -0.34375,-0.85937 0,-0.48438 0.34375,-0.82813 0.35938,-0.35937 0.85938,-0.35937 z m 0.96875,5.625 0,8.625 q 0,1 0.14062,1.34375 0.15625,0.32812 0.4375,0.5 0.29688,0.15625 1.04688,0.15625 l 0,0.42187 -5.20313,0 0,-0.42187 q 0.78125,0 1.04688,-0.15625 0.26562,-0.15625 0.42187,-0.5 0.17188,-0.35938 0.17188,-1.34375 l 0,-4.14063 q 0,-1.75 -0.10938,-2.26562 -0.0781,-0.375 -0.26562,-0.51563 -0.17188,-0.15625 -0.46875,-0.15625 -0.32813,0 -0.79688,0.1875 l -0.17187,-0.42187 3.23437,-1.3125 0.51563,0 z m 6.08984,-3.21875 0,3.53125 2.5,0 0,0.8125 -2.5,0 0,6.96875 q 0,1.04687 0.29688,1.40625 0.29687,0.35937 0.76562,0.35937 0.39063,0 0.75,-0.23437 0.35938,-0.25 0.5625,-0.71875 l 0.45313,0 q -0.40625,1.15625 -1.15625,1.73437 -0.75,0.57813 -1.54688,0.57813 -0.54687,0 -1.0625,-0.29688 -0.51562,-0.29687 -0.76562,-0.84375 -0.23438,-0.5625 -0.23438,-1.73437 l 0,-7.21875 -1.70312,0 0,-0.375 q 0.64062,-0.26563 1.3125,-0.875 0.6875,-0.625 1.20312,-1.46875 0.28125,-0.4375 0.75,-1.625 l 0.375,0 z m 9.6211,12.71875 q -1.64063,1.28125 -2.0625,1.46875 -0.64063,0.29687 -1.35938,0.29687 -1.10937,0 -1.82812,-0.75 -0.71875,-0.76562 -0.71875,-2.01562 0,-0.78125 0.34375,-1.35938 0.48437,-0.79687 1.67187,-1.5 1.1875,-0.70312 3.95313,-1.70312 l 0,-0.42188 q 0,-1.60937 -0.51563,-2.20312 -0.5,-0.60938 -1.46875,-0.60938 -0.73437,0 -1.17187,0.40625 -0.45313,0.39063 -0.45313,0.90625 l 0.0312,0.6875 q 0,0.53125 -0.28125,0.82813 -0.26562,0.29687 -0.71875,0.29687 -0.4375,0 -0.71875,-0.29687 -0.26562,-0.3125 -0.26562,-0.84375 0,-1 1.03125,-1.84375 1.03125,-0.84375 2.89062,-0.84375 1.4375,0 2.34375,0.46875 0.70313,0.375 1.03125,1.14062 0.20313,0.5 0.20313,2.0625 l 0,3.64063 q 0,1.54687 0.0625,1.89062 0.0625,0.34375 0.1875,0.46875 0.14062,0.10938 0.3125,0.10938 0.1875,0 0.32812,-0.0781 0.25,-0.15625 0.95313,-0.85937 l 0,0.65625 q -1.3125,1.76562 -2.51563,1.76562 -0.5625,0 -0.90625,-0.40625 -0.34375,-0.40625 -0.35937,-1.35937 z m 0,-0.76563 0,-4.09375 q -1.76563,0.70313 -2.28125,1 -0.92188,0.51563 -1.32813,1.07813 -0.39062,0.5625 -0.39062,1.23437 0,0.84375 0.5,1.40625 0.5,0.54688 1.15625,0.54688 0.89062,0 2.34375,-1.17188 z m 7.69922,-11.95312 0,3.53125 2.5,0 0,0.8125 -2.5,0 0,6.96875 q 0,1.04687 0.29687,1.40625 0.29688,0.35937 0.76563,0.35937 0.39062,0 0.75,-0.23437 0.35937,-0.25 0.5625,-0.71875 l 0.45312,0 q -0.40625,1.15625 -1.15625,1.73437 -0.75,0.57813 -1.54687,0.57813 -0.54688,0 -1.0625,-0.29688 -0.51563,-0.29687 -0.76563,-0.84375 -0.23437,-0.5625 -0.23437,-1.73437 l 0,-7.21875 -1.70313,0 0,-0.375 q 0.64063,-0.26563 1.3125,-0.875 0.6875,-0.625 1.20313,-1.46875 0.28125,-0.4375 0.75,-1.625 l 0.375,0 z m 6.27734,-2.40625 q 0.48438,0 0.82813,0.35937 0.35937,0.34375 0.35937,0.82813 0,0.5 -0.35937,0.85937 -0.34375,0.34375 -0.82813,0.34375 -0.5,0 -0.85937,-0.34375 -0.34375,-0.35937 -0.34375,-0.85937 0,-0.48438 0.34375,-0.82813 0.35937,-0.35937 0.85937,-0.35937 z m 0.96875,5.625 0,8.625 q 0,1 0.14063,1.34375 0.15625,0.32812 0.4375,0.5 0.29687,0.15625 1.04687,0.15625 l 0,0.42187 -5.20312,0 0,-0.42187 q 0.78125,0 1.04687,-0.15625 0.26563,-0.15625 0.42188,-0.5 0.17187,-0.35938 0.17187,-1.34375 l 0,-4.14063 q 0,-1.75 -0.10937,-2.26562 -0.0781,-0.375 -0.26563,-0.51563 -0.17187,-0.15625 -0.46875,-0.15625 -0.32812,0 -0.79687,0.1875 l -0.17188,-0.42187 3.23438,-1.3125 0.51562,0 z m 2.41797,0.3125 5.04687,0 0,0.4375 -0.32812,0 q -0.45313,0 -0.70313,0.21875 -0.23437,0.21875 -0.23437,0.59375 0,0.40625 0.25,0.96875 l 2.5,5.9375 2.5,-6.15625 q 0.26562,-0.65625 0.26562,-1 0,-0.15625 -0.0937,-0.26563 -0.125,-0.17187 -0.32812,-0.23437 -0.1875,-0.0625 -0.79688,-0.0625 l 0,-0.4375 3.5,0 0,0.4375 q -0.60937,0.0469 -0.84375,0.23437 -0.40625,0.35938 -0.73437,1.17188 l -3.8125,9.21875 -0.48438,0 -3.82812,-9.0625 q -0.26563,-0.625 -0.5,-0.90625 -0.23438,-0.28125 -0.59375,-0.46875 -0.20313,-0.0937 -0.78125,-0.1875 l 0,-0.4375 z m 18.625,9.1875 q -1.64063,1.28125 -2.0625,1.46875 -0.64063,0.29687 -1.35938,0.29687 -1.10937,0 -1.82812,-0.75 -0.71875,-0.76562 -0.71875,-2.01562 0,-0.78125 0.34375,-1.35938 0.48437,-0.79687 1.67187,-1.5 1.1875,-0.70312 3.95313,-1.70312 l 0,-0.42188 q 0,-1.60937 -0.51563,-2.20312 -0.5,-0.60938 -1.46875,-0.60938 -0.73437,0 -1.17187,0.40625 -0.45313,0.39063 -0.45313,0.90625 l 0.0312,0.6875 q 0,0.53125 -0.28125,0.82813 -0.26562,0.29687 -0.71875,0.29687 -0.4375,0 -0.71875,-0.29687 -0.26562,-0.3125 -0.26562,-0.84375 0,-1 1.03125,-1.84375 1.03125,-0.84375 2.89062,-0.84375 1.4375,0 2.34375,0.46875 0.70313,0.375 1.03125,1.14062 0.20313,0.5 0.20313,2.0625 l 0,3.64063 q 0,1.54687 0.0625,1.89062 0.0625,0.34375 0.1875,0.46875 0.14062,0.10938 0.3125,0.10938 0.1875,0 0.32812,-0.0781 0.25,-0.15625 0.95313,-0.85937 l 0,0.65625 q -1.3125,1.76562 -2.51563,1.76562 -0.5625,0 -0.90625,-0.40625 -0.34375,-0.40625 -0.35937,-1.35937 z m 0,-0.76563 0,-4.09375 q -1.76563,0.70313 -2.28125,1 -0.92188,0.51563 -1.32813,1.07813 -0.39062,0.5625 -0.39062,1.23437 0,0.84375 0.5,1.40625 0.5,0.54688 1.15625,0.54688 0.89062,0 2.34375,-1.17188 z"
       id="path83"
       inkscape:connector-curvature="0"
       style="fill:#666666;fill-rule:nonzero" />
    <path
       d="m 672.8478,258.60367 185.98425,0 0,45.16537 -185.98425,0 z"
       id="path85"
       inkscape:connector-curvature="0"
       style="fill:#000000;fill-opacity:0;fill-rule:evenodd" />
    <path
       d="m 672.8478,258.60367 185.98425,0 0,45.16537 -185.98425,0 z"
       id="path87"
       inkscape:connector-curvature="0"
       style="fill-rule:evenodd;stroke:#999999;stroke-width:1;stroke-linecap:butt;stroke-linejoin:round" />
    <path
       d="m 737.0723,275.46072 0,3.53125 2.5,0 0,0.8125 -2.5,0 0,6.96875 q 0,1.04687 0.29688,1.40625 0.29687,0.35937 0.76562,0.35937 0.39063,0 0.75,-0.23437 0.35938,-0.25 0.5625,-0.71875 l 0.45313,0 q -0.40625,1.15625 -1.15625,1.73437 -0.75,0.57813 -1.54688,0.57813 -0.54687,0 -1.0625,-0.29688 -0.51562,-0.29687 -0.76562,-0.84375 -0.23438,-0.5625 -0.23438,-1.73437 l 0,-7.21875 -1.70312,0 0,-0.375 q 0.64062,-0.26563 1.3125,-0.875 0.6875,-0.625 1.20312,-1.46875 0.28125,-0.4375 0.75,-1.625 l 0.375,0 z m 5.35547,7.57812 q -0.0156,2.39063 1.15625,3.75 1.17187,1.35938 2.75,1.35938 1.0625,0 1.82812,-0.57813 0.78125,-0.59375 1.3125,-2 l 0.35938,0.23438 q -0.23438,1.60937 -1.42188,2.9375 -1.1875,1.3125 -2.96875,1.3125 -1.9375,0 -3.3125,-1.5 -1.375,-1.51563 -1.375,-4.0625 0,-2.75 1.40625,-4.28125 1.42188,-1.54688 3.54688,-1.54688 1.8125,0 2.96875,1.1875 1.15625,1.1875 1.15625,3.1875 l -7.40625,0 z m 0,-0.6875 4.96875,0 q -0.0625,-1.03125 -0.25,-1.45312 -0.29688,-0.65625 -0.875,-1.03125 -0.57813,-0.375 -1.21875,-0.375 -0.96875,0 -1.73438,0.76562 -0.76562,0.75 -0.89062,2.09375 z m 14.08984,-3.67187 q 2.4375,0 3.92188,1.84375 1.25,1.57812 1.25,3.64062 0,1.4375 -0.70313,2.92188 -0.6875,1.46875 -1.90625,2.21875 -1.20312,0.75 -2.6875,0.75 -2.42187,0 -3.85937,-1.9375 -1.20313,-1.625 -1.20313,-3.65625 0,-1.46875 0.73438,-2.92188 0.73437,-1.46875 1.92187,-2.15625 1.20313,-0.70312 2.53125,-0.70312 z m -0.35937,0.75 q -0.625,0 -1.25,0.375 -0.625,0.375 -1.01563,1.29687 -0.39062,0.92188 -0.39062,2.375 0,2.34375 0.9375,4.04688 0.9375,1.70312 2.45312,1.70312 1.14063,0 1.875,-0.9375 0.73438,-0.9375 0.73438,-3.23437 0,-2.85938 -1.21875,-4.5 -0.84375,-1.125 -2.125,-1.125 z m 2.98437,-6 -3.45312,4.04687 -0.40625,0 1.23437,-4.04687 2.625,0 z m 7.26563,5.25 0,2.40625 q 1.34375,-2.40625 2.76562,-2.40625 0.64063,0 1.0625,0.39062 0.42188,0.39063 0.42188,0.90625 0,0.45313 -0.3125,0.78125 -0.29688,0.3125 -0.71875,0.3125 -0.40625,0 -0.92188,-0.40625 -0.5,-0.40625 -0.75,-0.40625 -0.20312,0 -0.45312,0.23438 -0.53125,0.48437 -1.09375,1.57812 l 0,5.14063 q 0,0.89062 0.21875,1.35937 0.15625,0.3125 0.54687,0.53125 0.39063,0.20313 1.10938,0.20313 l 0,0.42187 -5.5,0 0,-0.42187 q 0.82812,0 1.21875,-0.26563 0.29687,-0.1875 0.42187,-0.59375 0.0469,-0.20312 0.0469,-1.14062 l 0,-4.15625 q 0,-1.875 -0.0781,-2.23438 -0.0625,-0.35937 -0.28125,-0.51562 -0.20312,-0.17188 -0.5,-0.17188 -0.35937,0 -0.82812,0.1875 l -0.10938,-0.42187 3.25,-1.3125 0.48438,0 z m 7.58594,-5.625 q 0.48437,0 0.82812,0.35937 0.35938,0.34375 0.35938,0.82813 0,0.5 -0.35938,0.85937 -0.34375,0.34375 -0.82812,0.34375 -0.5,0 -0.85938,-0.34375 -0.34375,-0.35937 -0.34375,-0.85937 0,-0.48438 0.34375,-0.82813 0.35938,-0.35937 0.85938,-0.35937 z m 0.96875,5.625 0,8.625 q 0,1 0.14062,1.34375 0.15625,0.32812 0.4375,0.5 0.29688,0.15625 1.04688,0.15625 l 0,0.42187 -5.20313,0 0,-0.42187 q 0.78125,0 1.04688,-0.15625 0.26562,-0.15625 0.42187,-0.5 0.17188,-0.35938 0.17188,-1.34375 l 0,-4.14063 q 0,-1.75 -0.10938,-2.26562 -0.0781,-0.375 -0.26562,-0.51563 -0.17188,-0.15625 -0.46875,-0.15625 -0.32813,0 -0.79688,0.1875 l -0.17187,-0.42187 3.23437,-1.3125 0.51563,0 z m 12.08984,6.96875 q -0.4375,2.125 -1.70313,3.26562 -1.26562,1.14063 -2.79687,1.14063 -1.82813,0 -3.1875,-1.53125 -1.35938,-1.54688 -1.35938,-4.15625 0,-2.53125 1.5,-4.10938 1.5,-1.57812 3.60938,-1.57812 1.59375,0 2.60937,0.84375 1.01563,0.82812 1.01563,1.73437 0,0.4375 -0.29688,0.71875 -0.28125,0.26563 -0.79687,0.26563 -0.6875,0 -1.03125,-0.4375 -0.20313,-0.25 -0.26563,-0.9375 -0.0625,-0.6875 -0.48437,-1.0625 -0.40625,-0.34375 -1.125,-0.34375 -1.17188,0 -1.89063,0.85937 -0.95312,1.15625 -0.95312,3.04688 0,1.92187 0.9375,3.39062 0.95312,1.46875 2.5625,1.46875 1.14062,0 2.0625,-0.78125 0.64062,-0.54687 1.25,-1.96875 l 0.34375,0.17188 z m 7.60547,2.53125 q -1.64063,1.28125 -2.0625,1.46875 -0.64063,0.29687 -1.35938,0.29687 -1.10937,0 -1.82812,-0.75 -0.71875,-0.76562 -0.71875,-2.01562 0,-0.78125 0.34375,-1.35938 0.48437,-0.79687 1.67187,-1.5 1.1875,-0.70312 3.95313,-1.70312 l 0,-0.42188 q 0,-1.60937 -0.51563,-2.20312 -0.5,-0.60938 -1.46875,-0.60938 -0.73437,0 -1.17187,0.40625 -0.45313,0.39063 -0.45313,0.90625 l 0.0312,0.6875 q 0,0.53125 -0.28125,0.82813 -0.26562,0.29687 -0.71875,0.29687 -0.4375,0 -0.71875,-0.29687 -0.26562,-0.3125 -0.26562,-0.84375 0,-1 1.03125,-1.84375 1.03125,-0.84375 2.89062,-0.84375 1.4375,0 2.34375,0.46875 0.70313,0.375 1.03125,1.14062 0.20313,0.5 0.20313,2.0625 l 0,3.64063 q 0,1.54687 0.0625,1.89062 0.0625,0.34375 0.1875,0.46875 0.14062,0.10938 0.3125,0.10938 0.1875,0 0.32812,-0.0781 0.25,-0.15625 0.95313,-0.85937 l 0,0.65625 q -1.3125,1.76562 -2.51563,1.76562 -0.5625,0 -0.90625,-0.40625 -0.34375,-0.40625 -0.35937,-1.35937 z m 0,-0.76563 0,-4.09375 q -1.76563,0.70313 -2.28125,1 -0.92188,0.51563 -1.32813,1.07813 -0.39062,0.5625 -0.39062,1.23437 0,0.84375 0.5,1.40625 0.5,0.54688 1.15625,0.54688 0.89062,0 2.34375,-1.17188 z"
       id="path89"
       inkscape:connector-curvature="0"
       style="fill:#666666;fill-rule:nonzero" />
  </g>
</svg>
